<svg width="85" height="13" viewBox="0 0 85 13" fill="none" xmlns="http://www.w3.org/2000/svg">
<path d="M42.1813 1.69562L39.0439 4.32017H41.0928V12.8514L42.1813 11.9512V1.69562Z" fill="white"/>
<path d="M43.0856 11.1892L46.278 8.49876H44.1718V0.162537L43.0856 0.939146V11.1892Z" fill="white"/>
<path d="M82.6015 3.22815C82.9632 3.42129 83.2236 3.58472 83.3828 3.71843L84.5113 1.51215C83.947 1.15557 83.267 0.836146 82.4713 0.55386C81.69 0.271576 80.8436 0.130432 79.9321 0.130432C79.064 0.130432 78.2611 0.279004 77.5232 0.576146C76.7998 0.873288 76.2211 1.31157 75.787 1.891C75.3675 2.47043 75.1577 3.191 75.1577 4.05272C75.1577 5.01845 75.4543 5.76131 76.0475 6.28131C76.6551 6.78646 77.5811 7.20245 78.8253 7.52931C79.8236 7.79674 80.6266 8.04188 81.2343 8.26474C81.8564 8.47274 82.1675 8.82188 82.1675 9.31217C82.1675 10.0402 81.5019 10.4042 80.1709 10.4042C79.5053 10.4042 78.876 10.3225 78.2828 10.159C77.6896 9.9956 77.1687 9.79503 76.7202 9.55731C76.2862 9.3196 75.9751 9.10417 75.787 8.91103L74.6151 11.251C75.3675 11.7413 76.2283 12.1276 77.1977 12.4099C78.167 12.6922 79.1436 12.8333 80.1275 12.8333C80.9811 12.8333 81.7768 12.7145 82.5147 12.4767C83.2526 12.2242 83.8457 11.823 84.2943 11.2733C84.7572 10.7087 84.9887 9.96584 84.9887 9.04469C84.9887 8.28698 84.8151 7.67788 84.4679 7.21731C84.1351 6.74188 83.6504 6.36303 83.0138 6.08074C82.3917 5.79845 81.6538 5.54588 80.8002 5.32303C79.8309 5.08531 79.093 4.86988 78.5866 4.67674C78.0947 4.48357 77.8487 4.15672 77.8487 3.69615C77.8487 2.90872 78.5287 2.515 79.8887 2.515C80.3951 2.515 80.887 2.58929 81.3645 2.73786C81.8419 2.87157 82.2543 3.035 82.6015 3.22815Z" fill="white"/>
<path fill-rule="evenodd" clip-rule="evenodd" d="M59.7632 12.7665C58.8083 12.7665 57.9402 12.5956 57.1589 12.2539C56.3777 11.8973 55.7045 11.4219 55.1402 10.8276C54.5759 10.2185 54.1419 9.53505 53.8381 8.77734C53.5347 8.01962 53.3823 7.23962 53.3823 6.43734C53.3823 5.62019 53.5415 4.83276 53.8598 4.07503C54.1781 3.31731 54.627 2.64875 55.2058 2.06931C55.7845 1.47503 56.464 1.00703 57.2453 0.665312C58.0266 0.3236 58.8802 0.15274 59.8062 0.15274C60.761 0.15274 61.6296 0.338456 62.4109 0.709884C63.1921 1.06646 63.8577 1.54931 64.4075 2.15846C64.9717 2.75274 65.4053 3.42874 65.7091 4.18646C66.013 4.94419 66.1653 5.71672 66.1653 6.50415C66.1653 7.32129 66.0062 8.10876 65.6879 8.86648C65.3696 9.60934 64.9206 10.2779 64.3419 10.8722C63.7776 11.4516 63.1053 11.9122 62.3241 12.2539C61.5428 12.5956 60.6892 12.7665 59.7632 12.7665ZM56.03 6.45962C56.03 7.12819 56.1824 7.76705 56.4862 8.37619C56.7896 8.97048 57.2164 9.45334 57.7662 9.82476C58.3304 10.1962 59.0032 10.3819 59.7845 10.3819C60.5802 10.3819 61.253 10.1888 61.8027 9.80248C62.353 9.40134 62.7721 8.90362 63.0615 8.30929C63.3508 7.70015 63.496 7.07619 63.496 6.43734C63.496 5.76876 63.3441 5.13729 63.0402 4.54303C62.7364 3.94874 62.3024 3.47331 61.7376 3.11674C61.1879 2.74531 60.53 2.5596 59.7632 2.5596C58.9675 2.5596 58.287 2.75274 57.7227 3.13903C57.173 3.52531 56.7534 4.0156 56.464 4.60989C56.1747 5.20419 56.03 5.82076 56.03 6.45962Z" fill="white"/>
<path fill-rule="evenodd" clip-rule="evenodd" d="M0 12.6773L5.29532 0.219574H7.44383L12.7174 12.6773H9.93958L8.72426 9.75788H4.01489L2.79957 12.6773H0ZM6.38043 3.49557L4.60085 7.41788H8.09489L6.38043 3.49557Z" fill="white"/>
<path d="M22.9776 0.219574L26.3197 4.63214L29.6619 0.219574H32.5048L27.7087 6.52645L32.3529 12.6773H29.5099L26.3197 8.44302L23.1512 12.6773H20.2648L24.9308 6.52645L20.1129 0.219574H22.9776Z" fill="white"/>
</svg>
