<svg width="127" height="21" viewBox="0 0 127 21" fill="none" xmlns="http://www.w3.org/2000/svg">
<path d="M123.211 9.55V10.975C124.216 10.975 125.179 11.3754 125.89 12.088C126.601 12.8006 127 13.7672 127 14.775C127 15.554 126.763 16.276 126.365 16.8745L125.333 15.839C125.494 15.516 125.579 15.155 125.579 14.775C125.579 14.1451 125.329 13.541 124.885 13.0956C124.441 12.6502 123.839 12.4 123.211 12.4V13.825L121.079 11.6875L123.211 9.55ZM123.211 20V18.575C122.205 18.575 121.242 18.1746 120.531 17.462C119.82 16.7494 119.421 15.7828 119.421 14.775C119.421 13.996 119.658 13.274 120.056 12.6755L121.088 13.711C120.927 14.034 120.842 14.395 120.842 14.775C120.842 15.4049 121.092 16.009 121.536 16.4544C121.98 16.8998 122.582 17.15 123.211 17.15V15.725L125.342 17.8625L123.211 20ZM116.579 1C120.766 1 124.158 2.7005 124.158 4.8C124.158 6.8995 120.766 8.6 116.579 8.6C112.392 8.6 109 6.8995 109 4.8C109 2.7005 112.392 1 116.579 1ZM109 6.7C109 8.7995 112.392 10.5 116.579 10.5C117.631 10.5 118.635 10.3955 119.554 10.196C118.654 11.013 118 12.0865 117.697 13.312L116.579 13.35C112.392 13.35 109 11.6495 109 9.55V6.7ZM124.158 6.7V8.6H123.684L123.116 8.6285C123.779 8.0585 124.158 7.403 124.158 6.7ZM109 11.45C109 13.5495 112.392 15.25 116.579 15.25L117.526 15.2215C117.612 16.2285 117.924 17.15 118.426 17.986L116.579 18.1C112.392 18.1 109 16.3995 109 14.3V11.45Z" fill="white"/>
<path d="M6.462 17.18C5.742 17.18 5.1 17.018 4.536 16.694C3.972 16.37 3.528 15.926 3.204 15.362V17H1.098V3.86H3.51V9.224C3.846 8.66 4.284 8.216 4.824 7.892C5.376 7.568 6.018 7.406 6.75 7.406C7.566 7.406 8.28 7.634 8.892 8.09C9.516 8.534 10.002 9.128 10.35 9.872C10.698 10.616 10.872 11.432 10.872 12.32C10.872 13.232 10.68 14.054 10.296 14.786C9.912 15.518 9.384 16.1 8.712 16.532C8.052 16.964 7.302 17.18 6.462 17.18ZM5.796 15.128C6.312 15.128 6.762 15.002 7.146 14.75C7.542 14.498 7.848 14.162 8.064 13.742C8.292 13.31 8.406 12.842 8.406 12.338C8.406 11.822 8.298 11.348 8.082 10.916C7.878 10.472 7.59 10.118 7.218 9.854C6.846 9.59 6.42 9.458 5.94 9.458C5.412 9.458 4.926 9.638 4.482 9.998C4.05 10.346 3.726 10.778 3.51 11.294V13.544C3.666 14.012 3.972 14.396 4.428 14.696C4.884 14.984 5.34 15.128 5.796 15.128ZM11.8582 14.21C11.8582 13.598 12.0262 13.064 12.3622 12.608C12.7102 12.14 13.1902 11.78 13.8022 11.528C14.4142 11.276 15.1162 11.15 15.9082 11.15C16.3042 11.15 16.7062 11.186 17.1142 11.258C17.5222 11.318 17.8762 11.408 18.1762 11.528V11.024C18.1762 10.424 17.9962 9.962 17.6362 9.638C17.2882 9.314 16.7662 9.152 16.0702 9.152C15.5542 9.152 15.0622 9.242 14.5942 9.422C14.1262 9.602 13.6342 9.866 13.1182 10.214L12.3442 8.63C12.9682 8.222 13.6042 7.916 14.2522 7.712C14.9122 7.508 15.6022 7.406 16.3222 7.406C17.6662 7.406 18.7102 7.742 19.4542 8.414C20.2102 9.086 20.5882 10.046 20.5882 11.294V14.3C20.5882 14.564 20.6302 14.75 20.7142 14.858C20.7982 14.954 20.9482 15.014 21.1642 15.038V17C20.9482 17.048 20.7502 17.078 20.5702 17.09C20.4022 17.114 20.2582 17.126 20.1382 17.126C19.6582 17.126 19.2922 17.018 19.0402 16.802C18.7882 16.586 18.6382 16.322 18.5902 16.01L18.5362 15.524C18.1162 16.064 17.6002 16.478 16.9882 16.766C16.3882 17.042 15.7702 17.18 15.1342 17.18C14.4982 17.18 13.9342 17.054 13.4422 16.802C12.9502 16.538 12.5602 16.184 12.2722 15.74C11.9962 15.284 11.8582 14.774 11.8582 14.21ZM17.7262 14.696C18.0262 14.408 18.1762 14.132 18.1762 13.868V12.914C17.5522 12.662 16.9222 12.536 16.2862 12.536C15.6502 12.536 15.1342 12.674 14.7382 12.95C14.3422 13.214 14.1442 13.568 14.1442 14.012C14.1442 14.372 14.2882 14.696 14.5762 14.984C14.8642 15.272 15.2782 15.416 15.8182 15.416C16.1782 15.416 16.5262 15.35 16.8622 15.218C17.2102 15.086 17.4982 14.912 17.7262 14.696ZM26.3161 17.18C25.5121 17.18 24.7441 17.048 24.0121 16.784C23.2801 16.52 22.6501 16.13 22.1221 15.614L22.9861 14.048C23.5501 14.504 24.1021 14.84 24.6421 15.056C25.1821 15.272 25.7101 15.38 26.2261 15.38C26.6941 15.38 27.0661 15.296 27.3421 15.128C27.6301 14.96 27.7741 14.708 27.7741 14.372C27.7741 14.024 27.6001 13.79 27.2521 13.67C26.9041 13.538 26.4181 13.376 25.7941 13.184C25.0981 12.968 24.5161 12.746 24.0481 12.518C23.5801 12.29 23.2261 12.014 22.9861 11.69C22.7581 11.366 22.6441 10.946 22.6441 10.43C22.6441 9.506 22.9921 8.768 23.6881 8.216C24.3841 7.664 25.3081 7.388 26.4601 7.388C27.1321 7.388 27.7681 7.496 28.3681 7.712C28.9681 7.916 29.5141 8.252 30.0061 8.72L29.0341 10.25C28.1101 9.53 27.2161 9.17 26.3521 9.17C25.9681 9.17 25.6261 9.242 25.3261 9.386C25.0381 9.53 24.8941 9.782 24.8941 10.142C24.8941 10.478 25.0321 10.718 25.3081 10.862C25.5961 11.006 26.0281 11.162 26.6041 11.33C27.3481 11.558 27.9781 11.78 28.4941 11.996C29.0221 12.212 29.4181 12.488 29.6821 12.824C29.9581 13.16 30.0961 13.616 30.0961 14.192C30.0961 15.128 29.7541 15.86 29.0701 16.388C28.3861 16.916 27.4681 17.18 26.3161 17.18ZM31.7367 6.254V3.86H34.1487V6.254H31.7367ZM31.7367 17V7.568H34.1487V17H31.7367ZM40.7166 17.18C39.6966 17.18 38.8146 16.952 38.0706 16.496C37.3266 16.04 36.7506 15.44 36.3426 14.696C35.9346 13.952 35.7306 13.148 35.7306 12.284C35.7306 11.408 35.9286 10.598 36.3246 9.854C36.7326 9.11 37.3086 8.516 38.0526 8.072C38.7966 7.628 39.6786 7.406 40.6986 7.406C41.7306 7.406 42.6066 7.628 43.3266 8.072C44.0586 8.516 44.6046 9.098 44.9646 9.818L42.6066 10.538C42.1866 9.818 41.5446 9.458 40.6806 9.458C40.2126 9.458 39.7926 9.578 39.4206 9.818C39.0486 10.046 38.7546 10.376 38.5386 10.808C38.3226 11.228 38.2146 11.72 38.2146 12.284C38.2146 12.836 38.3226 13.328 38.5386 13.76C38.7666 14.18 39.0666 14.516 39.4386 14.768C39.8106 15.008 40.2246 15.128 40.6806 15.128C41.1126 15.128 41.5086 15.026 41.8686 14.822C42.2406 14.606 42.4986 14.336 42.6426 14.012L45.0006 14.732C44.6766 15.44 44.1366 16.028 43.3806 16.496C42.6366 16.952 41.7486 17.18 40.7166 17.18ZM46.4307 13.148V10.97H51.8847V13.148H46.4307ZM53.4682 10.52C53.4682 9.74 53.6062 8.972 53.8822 8.216C54.1702 7.46 54.5842 6.776 55.1242 6.164C55.6642 5.552 56.3242 5.066 57.1042 4.706C57.8842 4.334 58.7722 4.148 59.7682 4.148C60.9322 4.148 61.9462 4.406 62.8102 4.922C63.6742 5.438 64.3162 6.11 64.7362 6.938L62.8282 8.252C62.6122 7.772 62.3302 7.394 61.9822 7.118C61.6342 6.842 61.2562 6.644 60.8482 6.524C60.4522 6.404 60.0682 6.344 59.6962 6.344C59.0722 6.344 58.5262 6.47 58.0582 6.722C57.6022 6.974 57.2182 7.304 56.9062 7.712C56.5942 8.12 56.3602 8.576 56.2042 9.08C56.0602 9.584 55.9882 10.088 55.9882 10.592C55.9882 11.348 56.1442 12.056 56.4562 12.716C56.7682 13.364 57.2062 13.892 57.7702 14.3C58.3342 14.708 58.9882 14.912 59.7322 14.912C60.1162 14.912 60.5122 14.846 60.9202 14.714C61.3402 14.582 61.7242 14.372 62.0722 14.084C62.4202 13.796 62.6902 13.424 62.8822 12.968L64.9162 14.138C64.6522 14.774 64.2382 15.314 63.6742 15.758C63.1102 16.19 62.4742 16.526 61.7662 16.766C61.0582 16.994 60.3562 17.108 59.6602 17.108C58.7482 17.108 57.9142 16.922 57.1582 16.55C56.4142 16.166 55.7662 15.662 55.2142 15.038C54.6622 14.402 54.2302 13.694 53.9182 12.914C53.6182 12.122 53.4682 11.324 53.4682 10.52ZM66.582 17V4.22H72.234C72.822 4.22 73.362 4.34 73.854 4.58C74.358 4.82 74.79 5.144 75.15 5.552C75.522 5.96 75.804 6.416 75.996 6.92C76.2 7.424 76.302 7.94 76.302 8.468C76.302 9.284 76.092 10.034 75.672 10.718C75.264 11.402 74.706 11.894 73.998 12.194L76.914 17H74.178L71.55 12.716H69.066V17H66.582ZM69.066 10.538H72.18C72.648 10.538 73.032 10.34 73.332 9.944C73.644 9.536 73.8 9.044 73.8 8.468C73.8 8.072 73.716 7.718 73.548 7.406C73.38 7.094 73.164 6.848 72.9 6.668C72.648 6.488 72.372 6.398 72.072 6.398H69.066V10.538ZM83.918 17.09C82.898 17.09 82.028 16.922 81.308 16.586C80.6 16.238 80.024 15.764 79.58 15.164C79.148 14.564 78.83 13.886 78.626 13.13C78.422 12.362 78.32 11.564 78.32 10.736V4.22H80.804V10.736C80.804 11.444 80.9 12.116 81.092 12.752C81.284 13.388 81.608 13.904 82.064 14.3C82.52 14.696 83.132 14.894 83.9 14.894C84.692 14.894 85.316 14.696 85.772 14.3C86.228 13.892 86.552 13.37 86.744 12.734C86.936 12.098 87.032 11.432 87.032 10.736V4.22H89.498V10.736C89.498 11.612 89.39 12.434 89.174 13.202C88.97 13.97 88.64 14.648 88.184 15.236C87.74 15.812 87.164 16.268 86.456 16.604C85.748 16.928 84.902 17.09 83.918 17.09ZM92 17V4.22H96.644C98.036 4.22 99.2 4.508 100.136 5.084C101.072 5.648 101.774 6.416 102.242 7.388C102.71 8.348 102.944 9.416 102.944 10.592C102.944 11.888 102.686 13.016 102.17 13.976C101.654 14.936 100.922 15.68 99.974 16.208C99.026 16.736 97.916 17 96.644 17H92ZM100.442 10.592C100.442 9.764 100.292 9.038 99.992 8.414C99.692 7.778 99.26 7.286 98.696 6.938C98.132 6.578 97.448 6.398 96.644 6.398H94.484V14.822H96.644C97.46 14.822 98.15 14.642 98.714 14.282C99.278 13.91 99.704 13.406 99.992 12.77C100.292 12.122 100.442 11.396 100.442 10.592Z" fill="white"/>
</svg>
