<svg width="163" height="23" viewBox="0 0 163 23" fill="none" xmlns="http://www.w3.org/2000/svg">
<path d="M16.9561 11.5C16.9534 10.6409 16.8613 9.78446 16.6813 8.94445H18.9813C18.8629 8.59406 18.7198 8.25247 18.5533 7.92223H16.413C16.0107 6.57804 15.3866 5.31051 14.5666 4.17195C14.0427 3.95166 13.4965 3.78886 12.9374 3.68639C14.0608 4.89341 14.9088 6.32991 15.4227 7.89667H11.9791V3.57778H11.0208V7.90306H7.57717C8.09216 6.33347 8.94236 4.89466 10.0688 3.68639C9.51222 3.78715 8.96813 3.9478 8.44606 4.16556C7.62282 5.29935 6.99447 6.56251 6.58689 7.90306H4.43383C4.26425 8.23933 4.11906 8.58736 3.99939 8.94445H6.31856C6.13857 9.78446 6.0465 10.6409 6.04383 11.5C6.0456 12.4397 6.15275 13.3762 6.36328 14.2919H4.10161C4.23379 14.6501 4.39179 14.9981 4.57439 15.3333H6.638C7.02913 16.5573 7.60899 17.7127 8.35661 18.7578C8.89198 18.9874 9.45126 19.1567 10.0241 19.2625C8.98139 18.1251 8.17949 16.7886 7.66661 15.3333H11.0272V19.3839H11.9855V15.3333H15.3333C14.8187 16.7892 14.0145 18.1258 12.9694 19.2625C13.5449 19.153 14.1064 18.9795 14.6433 18.745C15.3897 17.7039 15.9695 16.5529 16.3619 15.3333H18.4063C18.5881 15.0043 18.7461 14.6627 18.8791 14.3111H16.6111C16.8316 13.3901 16.9474 12.447 16.9561 11.5ZM11.0208 14.2919H7.35356C6.90376 12.5336 6.88404 10.6928 7.29606 8.92528H11.0208V14.2919ZM15.6463 14.2919H11.9791V8.94445H15.7038C15.8874 9.78378 15.9774 10.6409 15.9722 11.5C15.9774 12.4404 15.8679 13.378 15.6463 14.2919Z" fill="white"/>
<path d="M11.4999 1.27778C9.47817 1.27778 7.50181 1.8773 5.82077 3.00053C4.13974 4.12377 2.82953 5.72026 2.05583 7.58813C1.28214 9.45599 1.07971 11.5113 1.47413 13.4943C1.86856 15.4772 2.84213 17.2986 4.27173 18.7282C5.70134 20.1578 7.52276 21.1314 9.50568 21.5258C11.4886 21.9202 13.5439 21.7178 15.4118 20.9441C17.2797 20.1704 18.8762 18.8602 19.9994 17.1792C21.1226 15.4981 21.7222 13.5218 21.7222 11.5C21.7222 8.7889 20.6452 6.18884 18.7281 4.2718C16.8111 2.35476 14.211 1.27778 11.4999 1.27778ZM11.4999 20.4444C9.73089 20.4444 8.00158 19.9199 6.53067 18.937C5.05976 17.9542 3.91333 16.5573 3.23635 14.9229C2.55936 13.2885 2.38223 11.4901 2.72736 9.75503C3.07248 8.01997 3.92436 6.42623 5.17526 5.17532C6.42616 3.92442 8.01991 3.07254 9.75496 2.72742C11.49 2.3823 13.2884 2.55943 14.9228 3.23641C16.5572 3.9134 17.9541 5.05983 18.937 6.53073C19.9198 8.00164 20.4444 9.73096 20.4444 11.5C20.4444 13.8722 19.502 16.1473 17.8246 17.8247C16.1472 19.5021 13.8722 20.4444 11.4999 20.4444Z" fill="white"/>
<path d="M34.524 18.216C33.24 18.216 32.076 17.94 31.032 17.388C30 16.824 29.184 16.05 28.584 15.066C27.996 14.07 27.702 12.948 27.702 11.7C27.702 10.452 27.996 9.336 28.584 8.352C29.184 7.356 30 6.582 31.032 6.03C32.076 5.466 33.246 5.184 34.542 5.184C35.634 5.184 36.618 5.376 37.494 5.76C38.382 6.144 39.126 6.696 39.726 7.416L37.854 9.144C37.002 8.16 35.946 7.668 34.686 7.668C33.906 7.668 33.21 7.842 32.598 8.19C31.986 8.526 31.506 9 31.158 9.612C30.822 10.224 30.654 10.92 30.654 11.7C30.654 12.48 30.822 13.176 31.158 13.788C31.506 14.4 31.986 14.88 32.598 15.228C33.21 15.564 33.906 15.732 34.686 15.732C35.946 15.732 37.002 15.234 37.854 14.238L39.726 15.966C39.126 16.698 38.382 17.256 37.494 17.64C36.606 18.024 35.616 18.216 34.524 18.216ZM45.7712 18.144C44.7512 18.144 43.8332 17.934 43.0172 17.514C42.2132 17.082 41.5832 16.488 41.1272 15.732C40.6712 14.976 40.4432 14.118 40.4432 13.158C40.4432 12.198 40.6712 11.34 41.1272 10.584C41.5832 9.828 42.2132 9.24 43.0172 8.82C43.8332 8.388 44.7512 8.172 45.7712 8.172C46.7912 8.172 47.7032 8.388 48.5072 8.82C49.3112 9.24 49.9412 9.828 50.3972 10.584C50.8532 11.34 51.0812 12.198 51.0812 13.158C51.0812 14.118 50.8532 14.976 50.3972 15.732C49.9412 16.488 49.3112 17.082 48.5072 17.514C47.7032 17.934 46.7912 18.144 45.7712 18.144ZM45.7712 15.84C46.4912 15.84 47.0792 15.6 47.5352 15.12C48.0032 14.628 48.2372 13.974 48.2372 13.158C48.2372 12.342 48.0032 11.694 47.5352 11.214C47.0792 10.722 46.4912 10.476 45.7712 10.476C45.0512 10.476 44.4572 10.722 43.9892 11.214C43.5212 11.694 43.2872 12.342 43.2872 13.158C43.2872 13.974 43.5212 14.628 43.9892 15.12C44.4572 15.6 45.0512 15.84 45.7712 15.84ZM62.7141 8.316V18H60.0501V16.848C59.6781 17.268 59.2341 17.592 58.7181 17.82C58.2021 18.036 57.6441 18.144 57.0441 18.144C55.7721 18.144 54.7641 17.778 54.0201 17.046C53.2761 16.314 52.9041 15.228 52.9041 13.788V8.316H55.7121V13.374C55.7121 14.934 56.3661 15.714 57.6741 15.714C58.3461 15.714 58.8861 15.498 59.2941 15.066C59.7021 14.622 59.9061 13.968 59.9061 13.104V8.316H62.7141ZM71.2015 8.172C72.4015 8.172 73.3675 8.532 74.0995 9.252C74.8435 9.972 75.2155 11.04 75.2155 12.456V18H72.4075V12.888C72.4075 12.12 72.2395 11.55 71.9035 11.178C71.5675 10.794 71.0815 10.602 70.4455 10.602C69.7375 10.602 69.1735 10.824 68.7535 11.268C68.3335 11.7 68.1235 12.348 68.1235 13.212V18H65.3155V8.316H67.9975V9.45C68.3695 9.042 68.8315 8.73 69.3835 8.514C69.9355 8.286 70.5415 8.172 71.2015 8.172ZM84.0068 17.532C83.7308 17.736 83.3888 17.892 82.9808 18C82.5848 18.096 82.1648 18.144 81.7208 18.144C80.5688 18.144 79.6748 17.85 79.0388 17.262C78.4148 16.674 78.1028 15.81 78.1028 14.67V10.692H76.6088V8.532H78.1028V6.174H80.9108V8.532H83.3228V10.692H80.9108V14.634C80.9108 15.042 81.0128 15.36 81.2168 15.588C81.4328 15.804 81.7328 15.912 82.1168 15.912C82.5608 15.912 82.9388 15.792 83.2508 15.552L84.0068 17.532ZM88.2651 9.594C88.6011 9.126 89.0511 8.772 89.6151 8.532C90.1911 8.292 90.8511 8.172 91.5951 8.172V10.764C91.2831 10.74 91.0731 10.728 90.9651 10.728C90.1611 10.728 89.5311 10.956 89.0751 11.412C88.6191 11.856 88.3911 12.528 88.3911 13.428V18H85.5831V8.316H88.2651V9.594ZM93.2648 8.316H96.0728V18H93.2648V8.316ZM94.6688 6.966C94.1528 6.966 93.7328 6.816 93.4088 6.516C93.0848 6.216 92.9228 5.844 92.9228 5.4C92.9228 4.956 93.0848 4.584 93.4088 4.284C93.7328 3.984 94.1528 3.834 94.6688 3.834C95.1848 3.834 95.6048 3.978 95.9288 4.266C96.2528 4.554 96.4148 4.914 96.4148 5.346C96.4148 5.814 96.2528 6.204 95.9288 6.516C95.6048 6.816 95.1848 6.966 94.6688 6.966ZM108.165 13.194C108.165 13.23 108.147 13.482 108.111 13.95H100.785C100.917 14.55 101.229 15.024 101.721 15.372C102.213 15.72 102.825 15.894 103.557 15.894C104.061 15.894 104.505 15.822 104.889 15.678C105.285 15.522 105.651 15.282 105.987 14.958L107.481 16.578C106.569 17.622 105.237 18.144 103.485 18.144C102.393 18.144 101.427 17.934 100.587 17.514C99.7468 17.082 99.0988 16.488 98.6428 15.732C98.1868 14.976 97.9588 14.118 97.9588 13.158C97.9588 12.21 98.1808 11.358 98.6248 10.602C99.0808 9.834 99.6988 9.24 100.479 8.82C101.271 8.388 102.153 8.172 103.125 8.172C104.073 8.172 104.931 8.376 105.699 8.784C106.467 9.192 107.067 9.78 107.499 10.548C107.943 11.304 108.165 12.186 108.165 13.194ZM103.143 10.296C102.507 10.296 101.973 10.476 101.541 10.836C101.109 11.196 100.845 11.688 100.749 12.312H105.519C105.423 11.7 105.159 11.214 104.727 10.854C104.295 10.482 103.767 10.296 103.143 10.296ZM113.292 18.144C112.488 18.144 111.702 18.048 110.934 17.856C110.166 17.652 109.554 17.4 109.098 17.1L110.034 15.084C110.466 15.36 110.988 15.588 111.6 15.768C112.212 15.936 112.812 16.02 113.4 16.02C114.588 16.02 115.182 15.726 115.182 15.138C115.182 14.862 115.02 14.664 114.696 14.544C114.372 14.424 113.874 14.322 113.202 14.238C112.41 14.118 111.756 13.98 111.24 13.824C110.724 13.668 110.274 13.392 109.89 12.996C109.518 12.6 109.332 12.036 109.332 11.304C109.332 10.692 109.506 10.152 109.854 9.684C110.214 9.204 110.73 8.832 111.402 8.568C112.086 8.304 112.89 8.172 113.814 8.172C114.498 8.172 115.176 8.25 115.848 8.406C116.532 8.55 117.096 8.754 117.54 9.018L116.604 11.016C115.752 10.536 114.822 10.296 113.814 10.296C113.214 10.296 112.764 10.38 112.464 10.548C112.164 10.716 112.014 10.932 112.014 11.196C112.014 11.496 112.176 11.706 112.5 11.826C112.824 11.946 113.34 12.06 114.048 12.168C114.84 12.3 115.488 12.444 115.992 12.6C116.496 12.744 116.934 13.014 117.306 13.41C117.678 13.806 117.864 14.358 117.864 15.066C117.864 15.666 117.684 16.2 117.324 16.668C116.964 17.136 116.436 17.502 115.74 17.766C115.056 18.018 114.24 18.144 113.292 18.144ZM119.237 11.808H124.331V14.058H119.237V11.808ZM126.738 5.4H129.654V18H126.738V5.4ZM138.332 8.172C139.532 8.172 140.498 8.532 141.23 9.252C141.974 9.972 142.346 11.04 142.346 12.456V18H139.538V12.888C139.538 12.12 139.37 11.55 139.034 11.178C138.698 10.794 138.212 10.602 137.576 10.602C136.868 10.602 136.304 10.824 135.884 11.268C135.464 11.7 135.254 12.348 135.254 13.212V18H132.446V8.316H135.128V9.45C135.5 9.042 135.962 8.73 136.514 8.514C137.066 8.286 137.672 8.172 138.332 8.172ZM147.97 8.532H150.454V10.692H148.042V18H145.234V10.692H143.74V8.532H145.234V8.1C145.234 6.996 145.558 6.12 146.206 5.472C146.866 4.824 147.79 4.5 148.978 4.5C149.398 4.5 149.794 4.548 150.166 4.644C150.55 4.728 150.868 4.854 151.12 5.022L150.382 7.056C150.058 6.828 149.68 6.714 149.248 6.714C148.396 6.714 147.97 7.182 147.97 8.118V8.532ZM156.338 18.144C155.318 18.144 154.4 17.934 153.584 17.514C152.78 17.082 152.15 16.488 151.694 15.732C151.238 14.976 151.01 14.118 151.01 13.158C151.01 12.198 151.238 11.34 151.694 10.584C152.15 9.828 152.78 9.24 153.584 8.82C154.4 8.388 155.318 8.172 156.338 8.172C157.358 8.172 158.27 8.388 159.074 8.82C159.878 9.24 160.508 9.828 160.964 10.584C161.42 11.34 161.648 12.198 161.648 13.158C161.648 14.118 161.42 14.976 160.964 15.732C160.508 16.488 159.878 17.082 159.074 17.514C158.27 17.934 157.358 18.144 156.338 18.144ZM156.338 15.84C157.058 15.84 157.646 15.6 158.102 15.12C158.57 14.628 158.804 13.974 158.804 13.158C158.804 12.342 158.57 11.694 158.102 11.214C157.646 10.722 157.058 10.476 156.338 10.476C155.618 10.476 155.024 10.722 154.556 11.214C154.088 11.694 153.854 12.342 153.854 13.158C153.854 13.974 154.088 14.628 154.556 15.12C155.024 15.6 155.618 15.84 156.338 15.84Z" fill="white"/>
</svg>
