<svg width="25" height="25" viewBox="0 0 25 25" fill="none" xmlns="http://www.w3.org/2000/svg">
<g clip-path="url(#clip0)">
<path d="M0.0328369 17.1141V1.16328C0.0328369 0.520316 0.553931 -0.000778198 1.1969 -0.000778198H23.7516C24.4024 -0.000778198 24.9196 0.520316 24.9196 1.16719V16.5398C24.2196 16.1125 23.3977 15.9008 22.4617 15.9008C21.1555 15.9008 20.1664 16.2102 19.4914 16.8328C18.8117 17.4555 18.4781 18.2164 18.4781 19.1523C18.4781 20.1617 18.8242 20.9102 19.5196 21.3906C19.9266 21.6875 20.675 21.9523 21.7492 22.1844L22.8438 22.4328C23.4992 22.575 23.9586 22.7461 24.2602 22.9133C24.5531 23.1047 24.7078 23.3688 24.7078 23.7109C24.7078 24.3008 24.4071 24.7078 23.8008 24.907L23.7727 24.9234H21.4696C21.1949 24.8284 20.9477 24.6678 20.7492 24.4555C20.5617 24.2234 20.436 23.882 20.375 23.4016H18.3117C18.3117 23.9875 18.4219 24.4883 18.6578 24.9398H16.9078C17.1031 24.5367 17.2172 24.0852 17.2172 23.5688C17.2172 22.6531 16.9078 21.9531 16.2977 21.4688C15.9071 21.1594 15.3172 20.9109 14.536 20.7242L12.7453 20.3055C12.0578 20.1586 11.6102 20.0125 11.3906 19.8867C11.0696 19.6992 10.9149 19.4188 10.9149 19.0648C10.9149 18.6703 11.0821 18.357 11.4031 18.1367C11.7453 17.9172 12.1844 17.8156 12.7461 17.8156C13.2586 17.8156 13.6617 17.9094 14.0078 18.0844C14.5203 18.3531 14.7891 18.8047 14.8297 19.4273H16.9133C16.8805 18.3367 16.4821 17.4984 15.7172 16.9211C14.9399 16.3516 14.0242 16.0547 12.9336 16.0547C11.6274 16.0547 10.6469 16.368 9.96331 16.9703C9.29612 17.5766 8.95393 18.3539 8.95393 19.2734C8.95393 20.2828 9.29612 21.0313 9.99534 21.5117C10.4102 21.7922 11.1594 22.057 12.2336 22.3055L13.3203 22.5539C13.9594 22.6961 14.4274 22.8508 14.7406 23.0383C15.0297 23.2258 15.1883 23.4859 15.1883 23.832C15.1883 24.4258 14.875 24.8086 14.2688 25.0281H11.9375C11.6406 24.918 11.3961 24.7633 11.2172 24.5438C11.0297 24.3156 10.8961 23.9578 10.8344 23.4898H8.73049C8.73049 24.068 8.84065 24.5805 9.06409 25.0281H6.88752C7.23362 24.4867 7.46565 23.8641 7.57893 23.1648H5.43831C5.29143 23.6977 5.11252 24.1008 4.89299 24.3648C4.62502 24.702 4.25081 24.9386 3.83127 25.0359H2.55393C2.08206 24.9258 1.67893 24.6617 1.35393 24.2422C0.873462 23.6602 0.637524 22.7898 0.637524 21.6383C0.637524 20.4703 0.877368 19.5875 1.32502 18.9523C1.79299 18.3133 2.39924 18.0039 3.18831 18.0039C3.96956 18.0039 4.54299 18.2195 4.95002 18.675C5.16956 18.9234 5.35706 19.2977 5.49143 19.7938H7.66018C7.62737 19.1508 7.38752 18.5039 6.94377 17.857C6.13831 16.7094 4.86877 16.1359 3.12737 16.1359C1.91877 16.1359 0.905493 16.5141 0.0961182 17.243L0.0429932 17.1289L0.0328369 17.1141ZM24.9227 20.8984V19.2828H24.3813C24.3446 18.6602 24.0719 18.2164 23.5672 17.9523C23.2414 17.7813 22.8188 17.6961 22.3258 17.6961C21.7602 17.6961 21.3289 17.8102 20.9992 18.0297C20.8438 18.1316 20.7167 18.2712 20.63 18.4356C20.5432 18.6 20.4996 18.7837 20.5031 18.9695C20.5031 19.3398 20.6782 19.6164 20.9992 19.8C21.2313 19.9102 21.6789 20.0648 22.3664 20.2188L24.1571 20.6461C24.4703 20.7109 24.7391 20.8047 24.9914 20.8859L24.9383 20.9188L24.9227 20.8984Z" fill="white"/>
</g>
<defs>
<clipPath id="clip0">
<rect width="25" height="25" fill="white"/>
</clipPath>
</defs>
</svg>
