<svg width="107" height="25" viewBox="0 0 107 25" fill="none" xmlns="http://www.w3.org/2000/svg">
<g clip-path="url(#clip0)">
<path d="M0.0327148 17.1141V1.16328C0.0327148 0.52031 0.553809 -0.00078392 1.19678 -0.00078392H23.7515C24.4022 -0.00078392 24.9194 0.52031 24.9194 1.16718V16.5398C24.2194 16.1125 23.3976 15.9008 22.4616 15.9008C21.1554 15.9008 20.1663 16.2102 19.4913 16.8328C18.8116 17.4555 18.478 18.2164 18.478 19.1523C18.478 20.1617 18.8241 20.9102 19.5194 21.3906C19.9265 21.6875 20.6749 21.9523 21.7491 22.1844L22.8437 22.4328C23.4991 22.575 23.9585 22.7461 24.2601 22.9133C24.553 23.1047 24.7077 23.3687 24.7077 23.7109C24.7077 24.3008 24.4069 24.7078 23.8007 24.907L23.7726 24.9234H21.4694C21.1948 24.8284 20.9475 24.6678 20.7491 24.4555C20.5616 24.2234 20.4358 23.882 20.3749 23.4016H18.3116C18.3116 23.9875 18.4218 24.4883 18.6577 24.9398H16.9077C17.103 24.5367 17.2171 24.0852 17.2171 23.5687C17.2171 22.6531 16.9077 21.9531 16.2976 21.4687C15.9069 21.1594 15.3171 20.9109 14.5358 20.7242L12.7452 20.3055C12.0577 20.1586 11.6101 20.0125 11.3905 19.8867C11.0694 19.6992 10.9147 19.4187 10.9147 19.0648C10.9147 18.6703 11.0819 18.357 11.403 18.1367C11.7452 17.9172 12.1843 17.8156 12.746 17.8156C13.2585 17.8156 13.6616 17.9094 14.0077 18.0844C14.5202 18.3531 14.789 18.8047 14.8296 19.4273H16.9132C16.8804 18.3367 16.4819 17.4984 15.7171 16.9211C14.9397 16.3516 14.0241 16.0547 12.9335 16.0547C11.6272 16.0547 10.6468 16.368 9.96318 16.9703C9.296 17.5766 8.95381 18.3539 8.95381 19.2734C8.95381 20.2828 9.296 21.0312 9.99521 21.5117C10.4101 21.7922 11.1593 22.057 12.2335 22.3055L13.3202 22.5539C13.9593 22.6961 14.4272 22.8508 14.7405 23.0383C15.0296 23.2258 15.1882 23.4859 15.1882 23.832C15.1882 24.4258 14.8749 24.8086 14.2687 25.0281H11.9374C11.6405 24.918 11.396 24.7633 11.2171 24.5437C11.0296 24.3156 10.896 23.9578 10.8343 23.4898H8.73037C8.73037 24.068 8.84053 24.5805 9.06396 25.0281H6.8874C7.2335 24.4867 7.46553 23.8641 7.57881 23.1648H5.43818C5.29131 23.6977 5.1124 24.1008 4.89287 24.3648C4.6249 24.702 4.25069 24.9385 3.83115 25.0359H2.55381C2.08193 24.9258 1.67881 24.6617 1.35381 24.2422C0.87334 23.6602 0.637402 22.7898 0.637402 21.6383C0.637402 20.4703 0.877246 19.5875 1.3249 18.9523C1.79287 18.3133 2.39912 18.0039 3.18818 18.0039C3.96943 18.0039 4.54287 18.2195 4.9499 18.675C5.16943 18.9234 5.35693 19.2977 5.49131 19.7937H7.66006C7.62725 19.1508 7.3874 18.5039 6.94365 17.857C6.13818 16.7094 4.86865 16.1359 3.12725 16.1359C1.91865 16.1359 0.905371 16.5141 0.0959961 17.243L0.0428711 17.1289L0.0327148 17.1141ZM24.9226 20.8984V19.2828H24.3812C24.3444 18.6602 24.0718 18.2164 23.5671 17.9523C23.2413 17.7812 22.8187 17.6961 22.3257 17.6961C21.7601 17.6961 21.3288 17.8102 20.9991 18.0297C20.8437 18.1316 20.7166 18.2712 20.6298 18.4356C20.5431 18.6 20.4994 18.7837 20.503 18.9695C20.503 19.3398 20.678 19.6164 20.9991 19.8C21.2312 19.9102 21.6788 20.0648 22.3663 20.2187L24.1569 20.6461C24.4702 20.7109 24.739 20.8047 24.9913 20.8859L24.9382 20.9187L24.9226 20.8984Z" fill="white"/>
</g>
<path d="M34.1489 13.686H31.644V18H30.2305V7.33594H33.7607C34.9619 7.33594 35.8848 7.60938 36.5293 8.15625C37.1787 8.70312 37.5034 9.49902 37.5034 10.5439C37.5034 11.208 37.3228 11.7866 36.9614 12.2798C36.605 12.7729 36.1069 13.1416 35.4673 13.3857L37.9722 17.9121V18H36.4634L34.1489 13.686ZM31.644 12.5361H33.8047C34.5029 12.5361 35.0571 12.3555 35.4673 11.9941C35.8823 11.6328 36.0898 11.1494 36.0898 10.5439C36.0898 9.88477 35.8921 9.37939 35.4966 9.02783C35.106 8.67627 34.5396 8.49805 33.7974 8.49316H31.644V12.5361ZM42.5571 18.1465C41.4829 18.1465 40.6089 17.7949 39.9351 17.0918C39.2612 16.3838 38.9243 15.439 38.9243 14.2573V14.0083C38.9243 13.2222 39.0732 12.5215 39.3711 11.9062C39.6738 11.2861 40.0938 10.8027 40.6309 10.4561C41.1729 10.1045 41.7588 9.92871 42.3887 9.92871C43.4189 9.92871 44.2197 10.2681 44.791 10.9468C45.3623 11.6255 45.6479 12.5972 45.6479 13.8618V14.4258H40.2793C40.2988 15.207 40.5259 15.8394 40.9604 16.3228C41.3999 16.8013 41.9565 17.0405 42.6304 17.0405C43.1089 17.0405 43.5142 16.9429 43.8462 16.7476C44.1782 16.5522 44.4688 16.2935 44.7178 15.9712L45.5454 16.6157C44.8813 17.6362 43.8853 18.1465 42.5571 18.1465ZM42.3887 11.042C41.8418 11.042 41.3828 11.2422 41.0117 11.6426C40.6406 12.0381 40.4111 12.5947 40.3232 13.3125H44.293V13.21C44.2539 12.5215 44.0684 11.9893 43.7363 11.6133C43.4043 11.2324 42.9551 11.042 42.3887 11.042ZM51.8369 15.8979C51.8369 15.5317 51.6978 15.2485 51.4194 15.0483C51.146 14.8433 50.665 14.6675 49.9766 14.521C49.293 14.3745 48.7485 14.1987 48.3433 13.9937C47.9429 13.7886 47.645 13.5444 47.4497 13.2612C47.2593 12.978 47.1641 12.6411 47.1641 12.2505C47.1641 11.6011 47.4375 11.0518 47.9844 10.6025C48.5361 10.1533 49.2393 9.92871 50.0938 9.92871C50.9922 9.92871 51.7197 10.1606 52.2764 10.6245C52.8379 11.0884 53.1187 11.6816 53.1187 12.4043H51.7563C51.7563 12.0332 51.5977 11.7134 51.2803 11.4448C50.9678 11.1763 50.5723 11.042 50.0938 11.042C49.6006 11.042 49.2148 11.1494 48.9365 11.3643C48.6582 11.5791 48.519 11.8599 48.519 12.2065C48.519 12.5337 48.6484 12.7803 48.9072 12.9463C49.166 13.1123 49.6323 13.271 50.3062 13.4224C50.9849 13.5737 51.5342 13.7544 51.9541 13.9644C52.374 14.1743 52.6841 14.4282 52.8843 14.7261C53.0894 15.019 53.1919 15.3779 53.1919 15.8027C53.1919 16.5107 52.9087 17.0796 52.3423 17.5093C51.7759 17.9341 51.041 18.1465 50.1377 18.1465C49.5029 18.1465 48.9414 18.0342 48.4531 17.8096C47.9648 17.585 47.5815 17.2725 47.3032 16.8721C47.0298 16.4668 46.8931 16.0298 46.8931 15.561H48.248C48.2725 16.0151 48.4531 16.3765 48.79 16.645C49.1318 16.9087 49.5811 17.0405 50.1377 17.0405C50.6504 17.0405 51.0605 16.938 51.3682 16.7329C51.6807 16.5229 51.8369 16.2446 51.8369 15.8979ZM61.6514 14.1255C61.6514 15.3315 61.3755 16.3032 60.8237 17.0405C60.272 17.7778 59.5249 18.1465 58.5825 18.1465C57.6206 18.1465 56.8638 17.8413 56.312 17.231V21.0469H54.957V10.0752H56.1948L56.2607 10.9541C56.8125 10.2705 57.5791 9.92871 58.5605 9.92871C59.5127 9.92871 60.2646 10.2876 60.8164 11.0054C61.373 11.7231 61.6514 12.7217 61.6514 14.001V14.1255ZM60.2964 13.9717C60.2964 13.0781 60.106 12.3726 59.7251 11.855C59.3442 11.3374 58.8218 11.0786 58.1577 11.0786C57.3374 11.0786 56.7222 11.4424 56.312 12.1699V15.9565C56.7173 16.6792 57.3374 17.0405 58.1724 17.0405C58.8218 17.0405 59.3369 16.7842 59.7178 16.2715C60.1035 15.7539 60.2964 14.9873 60.2964 13.9717ZM63.021 13.9644C63.021 13.188 63.1724 12.4897 63.4751 11.8696C63.7827 11.2495 64.2075 10.771 64.7495 10.4341C65.2964 10.0972 65.9189 9.92871 66.6172 9.92871C67.6963 9.92871 68.5679 10.3022 69.2319 11.0493C69.9009 11.7964 70.2354 12.79 70.2354 14.0303V14.1255C70.2354 14.897 70.0864 15.5903 69.7886 16.2056C69.4956 16.8159 69.0732 17.292 68.5215 17.6338C67.9746 17.9756 67.3447 18.1465 66.6318 18.1465C65.5576 18.1465 64.686 17.7729 64.0171 17.0259C63.353 16.2788 63.021 15.29 63.021 14.0596V13.9644ZM64.3833 14.1255C64.3833 15.0044 64.5859 15.71 64.9912 16.2422C65.4014 16.7744 65.9482 17.0405 66.6318 17.0405C67.3203 17.0405 67.8672 16.772 68.2725 16.2349C68.6777 15.6929 68.8804 14.936 68.8804 13.9644C68.8804 13.0952 68.6729 12.3921 68.2578 11.855C67.8477 11.313 67.3008 11.042 66.6172 11.042C65.9482 11.042 65.4087 11.3081 64.9985 11.8403C64.5884 12.3726 64.3833 13.1343 64.3833 14.1255ZM73.2163 10.0752L73.2603 11.0713C73.8657 10.3096 74.6567 9.92871 75.6333 9.92871C77.3081 9.92871 78.1528 10.8735 78.1675 12.7632V18H76.8125V12.7559C76.8076 12.1846 76.6758 11.7622 76.417 11.4888C76.1631 11.2153 75.7651 11.0786 75.2231 11.0786C74.7837 11.0786 74.3979 11.1958 74.0659 11.4302C73.7339 11.6646 73.4751 11.9722 73.2896 12.353V18H71.9346V10.0752H73.2163ZM84.8252 15.8979C84.8252 15.5317 84.686 15.2485 84.4077 15.0483C84.1343 14.8433 83.6533 14.6675 82.9648 14.521C82.2812 14.3745 81.7368 14.1987 81.3315 13.9937C80.9312 13.7886 80.6333 13.5444 80.438 13.2612C80.2476 12.978 80.1523 12.6411 80.1523 12.2505C80.1523 11.6011 80.4258 11.0518 80.9727 10.6025C81.5244 10.1533 82.2275 9.92871 83.082 9.92871C83.9805 9.92871 84.708 10.1606 85.2646 10.6245C85.8262 11.0884 86.1069 11.6816 86.1069 12.4043H84.7446C84.7446 12.0332 84.5859 11.7134 84.2686 11.4448C83.9561 11.1763 83.5605 11.042 83.082 11.042C82.5889 11.042 82.2031 11.1494 81.9248 11.3643C81.6465 11.5791 81.5073 11.8599 81.5073 12.2065C81.5073 12.5337 81.6367 12.7803 81.8955 12.9463C82.1543 13.1123 82.6206 13.271 83.2944 13.4224C83.9731 13.5737 84.5225 13.7544 84.9424 13.9644C85.3623 14.1743 85.6724 14.4282 85.8726 14.7261C86.0776 15.019 86.1802 15.3779 86.1802 15.8027C86.1802 16.5107 85.897 17.0796 85.3306 17.5093C84.7642 17.9341 84.0293 18.1465 83.126 18.1465C82.4912 18.1465 81.9297 18.0342 81.4414 17.8096C80.9531 17.585 80.5698 17.2725 80.2915 16.8721C80.0181 16.4668 79.8813 16.0298 79.8813 15.561H81.2363C81.2607 16.0151 81.4414 16.3765 81.7783 16.645C82.1201 16.9087 82.5693 17.0405 83.126 17.0405C83.6387 17.0405 84.0488 16.938 84.3564 16.7329C84.6689 16.5229 84.8252 16.2446 84.8252 15.8979ZM89.4175 18H88.0625V10.0752H89.4175V18ZM87.9526 7.97314C87.9526 7.75342 88.0186 7.56787 88.1504 7.4165C88.2871 7.26514 88.4873 7.18945 88.751 7.18945C89.0146 7.18945 89.2148 7.26514 89.3516 7.4165C89.4883 7.56787 89.5566 7.75342 89.5566 7.97314C89.5566 8.19287 89.4883 8.37598 89.3516 8.52246C89.2148 8.66895 89.0146 8.74219 88.751 8.74219C88.4873 8.74219 88.2871 8.66895 88.1504 8.52246C88.0186 8.37598 87.9526 8.19287 87.9526 7.97314ZM94.2075 16.1616L96.1704 10.0752H97.5547L94.7129 18H93.6802L90.8091 10.0752H92.1934L94.2075 16.1616ZM98.3823 13.9644C98.3823 13.188 98.5337 12.4897 98.8364 11.8696C99.144 11.2495 99.5688 10.771 100.111 10.4341C100.658 10.0972 101.28 9.92871 101.979 9.92871C103.058 9.92871 103.929 10.3022 104.593 11.0493C105.262 11.7964 105.597 12.79 105.597 14.0303V14.1255C105.597 14.897 105.448 15.5903 105.15 16.2056C104.857 16.8159 104.435 17.292 103.883 17.6338C103.336 17.9756 102.706 18.1465 101.993 18.1465C100.919 18.1465 100.047 17.7729 99.3784 17.0259C98.7144 16.2788 98.3823 15.29 98.3823 14.0596V13.9644ZM99.7446 14.1255C99.7446 15.0044 99.9473 15.71 100.353 16.2422C100.763 16.7744 101.31 17.0405 101.993 17.0405C102.682 17.0405 103.229 16.772 103.634 16.2349C104.039 15.6929 104.242 14.936 104.242 13.9644C104.242 13.0952 104.034 12.3921 103.619 11.855C103.209 11.313 102.662 11.042 101.979 11.042C101.31 11.042 100.77 11.3081 100.36 11.8403C99.9497 12.3726 99.7446 13.1343 99.7446 14.1255Z" fill="white"/>
<defs>
<clipPath id="clip0">
<rect width="25" height="25" fill="white"/>
</clipPath>
</defs>
</svg>
