<svg width="65" height="19" viewBox="0 0 65 19" fill="none" xmlns="http://www.w3.org/2000/svg">
<path d="M0.423008 14.7446V7.4786H9.45496V7.05359H0.423008V0.424886H10.026V0H0V15.1695H10.1105V14.7446H0.423135H0.423008ZM18.2542 4.24911L14.5104 9.19944L10.8509 4.24924H10.301L14.2565 9.51823L9.92012 15.1694H10.4278L14.5101 9.83664L18.6136 15.1694H19.1424L14.7851 9.51798L18.7616 4.24899H18.2541L18.2542 4.24911ZM20.4117 18.9088V12.1103H20.4539C20.7078 13.1017 21.2084 13.8984 21.9558 14.5004C22.7032 15.1023 23.6549 15.4034 24.8112 15.4034C25.5586 15.4034 26.2214 15.2511 26.7996 14.9466C27.3777 14.6421 27.8606 14.2278 28.2485 13.7037C28.6362 13.1796 28.9324 12.5706 29.1369 11.8765C29.3413 11.1826 29.4436 10.4531 29.4436 9.68834C29.4436 8.86675 29.3377 8.10892 29.1262 7.41497C28.9147 6.7209 28.608 6.11889 28.2062 5.60908C27.8043 5.09914 27.3178 4.70244 26.7466 4.41935C26.1756 4.13601 25.5304 3.99434 24.8112 3.99434C24.2613 3.99434 23.7501 4.07582 23.2777 4.23866C22.8054 4.40162 22.3859 4.63166 22.0193 4.92916C21.6505 5.22894 21.3295 5.58358 21.0674 5.98079C20.7995 6.38451 20.595 6.82712 20.4539 7.30875H20.4117V4.24911H19.9886V18.9088H20.4117ZM24.8112 14.9995C23.4858 14.9995 22.4211 14.5428 21.6173 13.6292C20.8136 12.7157 20.4117 11.4019 20.4117 9.68809C20.4117 8.97986 20.5104 8.30708 20.7078 7.66975C20.9052 7.03242 21.1908 6.47288 21.5644 5.99138C21.9381 5.50975 22.4 5.12732 22.9498 4.84411C23.4998 4.56076 24.1203 4.41909 24.8112 4.41909C25.5163 4.41909 26.1333 4.56076 26.6621 4.84411C27.1908 5.12732 27.628 5.51332 27.9735 6.00196C28.3189 6.4906 28.5798 7.05015 28.7562 7.68034C28.9324 8.31065 29.0205 8.97986 29.0205 9.68809C29.0205 10.3255 28.9395 10.9594 28.7772 11.5896C28.6151 12.2199 28.3648 12.7865 28.0263 13.2894C27.688 13.7921 27.2544 14.2028 26.7255 14.5216C26.1966 14.8403 25.5586 14.9995 24.8112 14.9995ZM31.7703 15.1695V8.987C31.7703 8.39213 31.8548 7.8113 32.0242 7.24487C32.1933 6.67831 32.4542 6.17895 32.8067 5.74705C33.1593 5.31503 33.6069 4.97507 34.1499 4.72717C34.6927 4.47928 35.3379 4.37663 36.0853 4.41909V3.99421C35.4366 3.98018 34.8691 4.05083 34.3826 4.20665C33.896 4.36248 33.4765 4.57492 33.124 4.84411C32.7714 5.11317 32.4895 5.42826 32.278 5.78952C32.0666 6.1502 31.9098 6.5404 31.8125 6.94737H31.7703V4.24911H31.3473V15.1697H31.7703V15.1695ZM36.614 9.79431H45.7093C45.7377 9.04362 45.6636 8.32136 45.4873 7.62729C45.3111 6.93321 45.029 6.31705 44.6413 5.77893C44.2534 5.24068 43.7529 4.80866 43.1394 4.48285C42.526 4.15705 41.7963 3.99421 40.9503 3.99421C40.3438 3.99421 39.7516 4.12173 39.1734 4.37676C38.5953 4.63166 38.0876 5.00338 37.6505 5.49202C37.2134 5.98066 36.8608 6.5791 36.593 7.28746C36.3251 7.99556 36.191 8.80287 36.191 9.70938C36.191 10.5167 36.2827 11.271 36.466 11.972C36.6493 12.6731 36.9313 13.2823 37.312 13.7992C37.6929 14.3162 38.1829 14.7163 38.7822 14.9995C39.3814 15.2829 40.1041 15.4174 40.9503 15.4033C42.1911 15.4033 43.2346 15.0526 44.0807 14.3516C44.9268 13.6504 45.4274 12.6625 45.5825 11.3878H45.1595C44.9762 12.5918 44.5072 13.4947 43.7529 14.0966C42.9984 14.6986 42.0502 14.9995 40.9079 14.9995C40.1323 14.9995 39.4766 14.865 38.9407 14.596C38.405 14.3269 37.9677 13.9585 37.6293 13.4911C37.291 13.0237 37.0406 12.4748 36.8785 11.8445C36.7162 11.2143 36.6281 10.5308 36.614 9.79431ZM45.2863 9.36942H36.6142C36.6563 8.60458 36.7974 7.91764 37.0371 7.30862C37.2769 6.69948 37.5906 6.17895 37.9784 5.74705C38.3661 5.31503 38.8174 4.98578 39.3321 4.75905C39.8468 4.53246 40.4003 4.41909 40.9925 4.41909C41.6976 4.41909 42.3179 4.55018 42.8539 4.81223C43.3897 5.07428 43.8374 5.43196 44.1971 5.88515C44.5566 6.33835 44.828 6.86601 45.0114 7.46789C45.1947 8.0699 45.2863 8.70378 45.2863 9.36942ZM54.4875 7.4786H54.9105C54.9105 6.26044 54.558 5.37521 53.853 4.82281C53.1478 4.27041 52.1889 3.99421 50.9762 3.99421C50.2993 3.99421 49.7283 4.07926 49.2629 4.24924C48.7976 4.41909 48.4169 4.63868 48.1207 4.90774C47.8246 5.1768 47.6131 5.4743 47.4862 5.8001C47.3592 6.12591 47.2958 6.43756 47.2958 6.73493C47.2958 7.32979 47.4015 7.80428 47.6131 8.1584C47.8246 8.51251 48.156 8.78871 48.6072 8.987C48.9174 9.12854 49.2699 9.25606 49.6648 9.36955C50.0596 9.48278 50.518 9.60316 51.0397 9.73055C51.505 9.84404 51.9633 9.95727 52.4146 10.0705C52.8658 10.1839 53.2642 10.3361 53.6096 10.5273C53.9552 10.7185 54.2372 10.9629 54.4558 11.2604C54.6743 11.5577 54.7836 11.9473 54.7836 12.4288C54.7836 12.8963 54.6744 13.2929 54.4558 13.6185C54.239 13.9426 53.9538 14.2147 53.6203 14.4154C53.2818 14.6207 52.9045 14.7694 52.4886 14.8614C52.0726 14.9535 51.6673 14.9995 51.2724 14.9995C49.9892 14.9995 49.0056 14.7128 48.3217 14.1392C47.6378 13.5655 47.2959 12.6625 47.2959 11.4302H46.8727C46.8727 12.8042 47.2429 13.8098 47.9832 14.4473C48.7236 15.0846 49.82 15.4033 51.2724 15.4033C51.7377 15.4033 52.2066 15.3501 52.6791 15.2439C53.1513 15.1376 53.5745 14.9642 53.9481 14.7233C54.3186 14.4859 54.6297 14.1661 54.8576 13.7886C55.0903 13.4061 55.2067 12.9387 55.2067 12.3863C55.2067 11.8622 55.1044 11.4374 54.9 11.1116C54.6955 10.7859 54.4276 10.5167 54.0961 10.3042C53.7648 10.0918 53.3912 9.9254 52.9751 9.80502C52.5568 9.68393 52.1372 9.56704 51.7165 9.45435C51.1988 9.31791 50.6806 9.18338 50.1618 9.05076C49.7178 8.9374 49.3053 8.80287 48.9246 8.64704C48.5579 8.49121 48.2653 8.26819 48.0467 7.97783C47.8281 7.68748 47.7189 7.27317 47.7189 6.73493C47.7189 6.63585 47.7471 6.45872 47.8034 6.20382C47.8598 5.94879 47.9939 5.69031 48.2054 5.42826C48.4169 5.16634 48.7411 4.9326 49.1783 4.72717C49.6154 4.52187 50.2148 4.41909 50.9762 4.41909C51.498 4.41909 51.9739 4.47584 52.404 4.58907C52.8341 4.70244 53.2043 4.883 53.5144 5.13089C53.8247 5.37879 54.0644 5.69388 54.2336 6.0763C54.4028 6.45885 54.4875 6.9262 54.4875 7.4786ZM64.2808 7.4786H64.7038C64.7038 6.26044 64.3514 5.37521 63.6463 4.82281C62.9412 4.27041 61.9823 3.99421 60.7695 3.99421C60.0928 3.99421 59.5216 4.07926 59.0563 4.24924C58.5909 4.41909 58.2102 4.63868 57.9141 4.90774C57.6179 5.1768 57.4064 5.4743 57.2795 5.8001C57.1525 6.12591 57.0892 6.43756 57.0892 6.73493C57.0892 7.32979 57.1949 7.80428 57.4066 8.1584C57.6179 8.51251 57.9494 8.78871 58.4006 8.987C58.7109 9.12854 59.0633 9.25606 59.4581 9.36955C59.8529 9.48278 60.3112 9.60316 60.833 9.73055C61.2984 9.84404 61.7567 9.95727 62.2079 10.0705C62.6592 10.1839 63.0575 10.3361 63.4031 10.5273C63.7485 10.7185 64.0306 10.9629 64.2491 11.2604C64.4677 11.5577 64.577 11.9473 64.577 12.4288C64.577 12.8963 64.4677 13.2929 64.2491 13.6185C64.0324 13.9426 63.7471 14.2147 63.4137 14.4154C63.0751 14.6207 62.698 14.7694 62.2819 14.8614C61.866 14.9535 61.4605 14.9995 61.0657 14.9995C59.7825 14.9995 58.799 14.7128 58.1151 14.1392C57.4311 13.5655 57.0892 12.6625 57.0892 11.4302H56.6662C56.6662 12.8042 57.0362 13.8098 57.7766 14.4473C58.5169 15.0846 59.6133 15.4033 61.0657 15.4033C61.5311 15.4033 62 15.3501 62.4724 15.2439C62.9446 15.1376 63.3678 14.9642 63.7415 14.7233C64.112 14.4859 64.4231 14.1661 64.651 13.7886C64.8837 13.4061 65 12.9387 65 12.3863C65 11.8622 64.8978 11.4374 64.6933 11.1116C64.4889 10.7859 64.221 10.5167 63.8895 10.3042C63.5582 10.0918 63.1844 9.9254 62.7685 9.80502C62.3502 9.68393 61.9306 9.56704 61.5099 9.45435C60.9922 9.31791 60.474 9.18338 59.9553 9.05076C59.5111 8.9374 59.0986 8.80287 58.7178 8.64704C58.3512 8.49121 58.0586 8.26819 57.8401 7.97783C57.6215 7.68748 57.5122 7.27317 57.5122 6.73493C57.5122 6.63585 57.5404 6.45872 57.5969 6.20382C57.6532 5.94879 57.7873 5.69031 57.9987 5.42826C58.2102 5.16634 58.5345 4.9326 58.9716 4.72717C59.4089 4.52187 60.0081 4.41909 60.7697 4.41909C61.2914 4.41909 61.7673 4.47584 62.1974 4.58907C62.6275 4.70244 62.9976 4.883 63.3078 5.13089C63.6181 5.37879 63.8578 5.69388 64.027 6.0763C64.1963 6.45885 64.2809 6.9262 64.2809 7.4786H64.2808Z" fill="white"/>
</svg>
