<svg width="19" height="26" viewBox="0 0 19 26" fill="none" xmlns="http://www.w3.org/2000/svg">
<path d="M10.4625 1.9375L11.3667 3.35833L12.2708 1.9375V3.875H13.5625V0H12.2708L11.3667 1.42083L10.5917 0H9.17083V3.875H10.4625V1.9375ZM17.3083 3.875V2.58333H15.5V0H14.2083V3.875H17.3083ZM6.2 3.875H7.49167V1.29167H8.65417V0H5.0375V1.29167H6.2V3.875ZM2.06667 2.58333H3.22917V3.875H4.52083V0H3.22917V1.29167H2.06667V0H0.775V3.875H2.06667V2.58333ZM0 5.16667L1.55 23.7667L9.04167 25.8333L16.5333 23.7667L18.0833 5.16667H0ZM14.5958 11.1083H5.8125L6.07083 13.4333H14.3375L13.6917 20.5375L9.04167 21.8292L4.39167 20.5375L4.00417 16.7917H6.32917L6.45833 18.7292L9.04167 19.375L11.625 18.7292L11.8833 15.7583H3.875L3.22917 8.9125H14.8542L14.5958 11.1083Z" fill="white"/>
</svg>
