<svg width="84" height="84" viewBox="0 0 84 84" fill="none" xmlns="http://www.w3.org/2000/svg">
<path d="M41.9887 27.994C34.2766 27.994 27.983 34.2878 27.983 42C27.983 49.7122 34.2766 56.006 41.9887 56.006C49.7008 56.006 55.9944 49.7122 55.9944 42C55.9944 34.2878 49.7008 27.994 41.9887 27.994ZM83.9953 42C83.9953 36.2001 84.0479 30.4527 83.7221 24.6633C83.3964 17.9387 81.8624 11.9707 76.9452 7.05339C72.0174 2.12556 66.06 0.60203 59.3356 0.27631C53.5358 -0.0494104 47.7885 0.00312528 41.9992 0.00312528C36.1994 0.00312528 30.4521 -0.0494104 24.6628 0.27631C17.9384 0.60203 11.9705 2.13607 7.05326 7.05339C2.12552 11.9812 0.602019 17.9387 0.276305 24.6633C-0.0494095 30.4632 0.00312522 36.2106 0.00312522 42C0.00312522 47.7894 -0.0494095 53.5473 0.276305 59.3367C0.602019 66.0613 2.13603 72.0293 7.05326 76.9466C11.981 81.8744 17.9384 83.398 24.6628 83.7237C30.4626 84.0494 36.2099 83.9969 41.9992 83.9969C47.799 83.9969 53.5463 84.0494 59.3356 83.7237C66.06 83.398 72.028 81.8639 76.9452 76.9466C81.8729 72.0188 83.3964 66.0613 83.7221 59.3367C84.0584 53.5473 83.9953 47.7999 83.9953 42ZM41.9887 63.5501C30.0634 63.5501 20.4391 53.9256 20.4391 42C20.4391 30.0744 30.0634 20.4499 41.9887 20.4499C53.914 20.4499 63.5384 30.0744 63.5384 42C63.5384 53.9256 53.914 63.5501 41.9887 63.5501ZM64.421 24.6002C61.6366 24.6002 59.3881 22.3517 59.3881 19.5673C59.3881 16.783 61.6366 14.5344 64.421 14.5344C67.2053 14.5344 69.4538 16.783 69.4538 19.5673C69.4546 20.2285 69.325 20.8833 69.0723 21.4943C68.8197 22.1053 68.449 22.6605 67.9815 23.128C67.514 23.5955 66.9589 23.9662 66.3479 24.2188C65.7369 24.4715 65.0821 24.6011 64.421 24.6002Z" fill="white"/>
</svg>
