<svg width="100" height="24" viewBox="0 0 100 24" fill="none" xmlns="http://www.w3.org/2000/svg">
<path d="M0 0H24V24H0V0ZM22.0333 18.276C21.8587 17.1813 21.1453 16.2613 19.0307 15.4027C18.2947 15.0573 17.4773 14.8187 17.232 14.264C17.1413 13.9333 17.128 13.7547 17.1867 13.5587C17.3373 12.9133 18.1027 12.72 18.7027 12.8987C19.0933 13.0187 19.4533 13.3187 19.6787 13.8C20.712 13.124 20.712 13.124 21.4333 12.6747C21.1627 12.256 21.028 12.0733 20.848 11.8933C20.2173 11.1893 19.3773 10.8293 18.0133 10.86L17.3093 10.9493C16.6333 11.1147 15.988 11.476 15.5987 11.9547C14.4587 13.2453 14.788 15.4947 16.168 16.4267C17.532 17.4467 19.5293 17.6707 19.784 18.6307C20.024 19.8013 18.9147 20.176 17.8173 20.0413C17.008 19.86 16.5573 19.456 16.0627 18.7053L14.2333 19.756C14.4427 20.2347 14.6827 20.4453 15.0427 20.8653C16.7827 22.62 21.1333 22.5307 21.9133 19.86C21.9413 19.7707 22.1533 19.156 21.988 18.2107L22.0333 18.276ZM13.0507 11.0307H10.8027C10.8027 12.968 10.7933 14.8947 10.7933 16.836C10.7933 18.068 10.856 19.1987 10.6547 19.5467C10.3253 20.236 9.47333 20.148 9.088 20.0253C8.692 19.8307 8.49067 19.56 8.25733 19.1707C8.19467 19.0667 8.148 18.976 8.13067 18.976L6.30667 20.1013C6.612 20.732 7.05733 21.2733 7.632 21.6173C8.48667 22.128 9.63467 22.2933 10.8373 22.024C11.6213 21.7973 12.2973 21.332 12.648 20.612C13.16 19.6827 13.0507 18.5413 13.0467 17.2667C13.0573 15.212 13.0467 13.156 13.0467 11.0867L13.0507 11.0307Z" fill="white"/>
<path d="M34.7056 6.33594H36.1191V13.8872C36.1191 14.9077 35.8115 15.7061 35.1963 16.2822C34.5859 16.8584 33.7705 17.1465 32.75 17.1465C31.6904 17.1465 30.8652 16.8755 30.2744 16.3335C29.6836 15.7915 29.3882 15.0322 29.3882 14.0557H30.7944C30.7944 14.666 30.9604 15.1421 31.2925 15.4839C31.6294 15.8257 32.1152 15.9966 32.75 15.9966C33.3311 15.9966 33.7998 15.8135 34.1562 15.4473C34.5176 15.0811 34.7007 14.5684 34.7056 13.9092V6.33594ZM43.1943 17C43.1162 16.8438 43.0527 16.5654 43.0039 16.165C42.374 16.8193 41.6221 17.1465 40.748 17.1465C39.9668 17.1465 39.3247 16.9268 38.8218 16.4873C38.3237 16.043 38.0747 15.4814 38.0747 14.8027C38.0747 13.9775 38.3872 13.3379 39.0122 12.8838C39.6421 12.4248 40.5259 12.1953 41.6636 12.1953H42.9819V11.5728C42.9819 11.0991 42.8403 10.7231 42.5571 10.4448C42.2739 10.1616 41.8564 10.02 41.3047 10.02C40.8213 10.02 40.416 10.1421 40.0889 10.3862C39.7617 10.6304 39.5981 10.9258 39.5981 11.2725H38.2358C38.2358 10.877 38.375 10.4961 38.6533 10.1299C38.9365 9.75879 39.3174 9.46582 39.7959 9.25098C40.2793 9.03613 40.8091 8.92871 41.3853 8.92871C42.2983 8.92871 43.0137 9.1582 43.5312 9.61719C44.0488 10.0713 44.3174 10.6987 44.3369 11.4995V15.147C44.3369 15.8745 44.4297 16.4531 44.6152 16.8828V17H43.1943ZM40.9458 15.9673C41.3706 15.9673 41.7734 15.8574 42.1543 15.6377C42.5352 15.418 42.811 15.1323 42.9819 14.7808V13.1548H41.9199C40.2598 13.1548 39.4297 13.6406 39.4297 14.6123C39.4297 15.0371 39.5713 15.3691 39.8545 15.6084C40.1377 15.8477 40.5015 15.9673 40.9458 15.9673ZM48.9585 15.1616L50.9214 9.0752H52.3057L49.4639 17H48.4312L45.5601 9.0752H46.9443L48.9585 15.1616ZM58.3848 17C58.3066 16.8438 58.2432 16.5654 58.1943 16.165C57.5645 16.8193 56.8125 17.1465 55.9385 17.1465C55.1572 17.1465 54.5151 16.9268 54.0122 16.4873C53.5142 16.043 53.2651 15.4814 53.2651 14.8027C53.2651 13.9775 53.5776 13.3379 54.2026 12.8838C54.8325 12.4248 55.7163 12.1953 56.854 12.1953H58.1724V11.5728C58.1724 11.0991 58.0308 10.7231 57.7476 10.4448C57.4644 10.1616 57.0469 10.02 56.4951 10.02C56.0117 10.02 55.6064 10.1421 55.2793 10.3862C54.9521 10.6304 54.7886 10.9258 54.7886 11.2725H53.4263C53.4263 10.877 53.5654 10.4961 53.8438 10.1299C54.127 9.75879 54.5078 9.46582 54.9863 9.25098C55.4697 9.03613 55.9995 8.92871 56.5757 8.92871C57.4888 8.92871 58.2041 9.1582 58.7217 9.61719C59.2393 10.0713 59.5078 10.6987 59.5273 11.4995V15.147C59.5273 15.8745 59.6201 16.4531 59.8057 16.8828V17H58.3848ZM56.1362 15.9673C56.561 15.9673 56.9639 15.8574 57.3447 15.6377C57.7256 15.418 58.0015 15.1323 58.1724 14.7808V13.1548H57.1104C55.4502 13.1548 54.6201 13.6406 54.6201 14.6123C54.6201 15.0371 54.7617 15.3691 55.0449 15.6084C55.3281 15.8477 55.6919 15.9673 56.1362 15.9673ZM65.0059 12.2466C63.7998 11.8999 62.9209 11.4751 62.3691 10.9722C61.8223 10.4644 61.5488 9.83936 61.5488 9.09717C61.5488 8.25732 61.8833 7.56396 62.5522 7.01709C63.2261 6.46533 64.1001 6.18945 65.1743 6.18945C65.9067 6.18945 66.5586 6.33105 67.1299 6.61426C67.7061 6.89746 68.1504 7.28809 68.4629 7.78613C68.7803 8.28418 68.939 8.82861 68.939 9.41943H67.5254C67.5254 8.7749 67.3203 8.26953 66.9102 7.90332C66.5 7.53223 65.9214 7.34668 65.1743 7.34668C64.481 7.34668 63.939 7.50049 63.5483 7.80811C63.1626 8.11084 62.9697 8.5332 62.9697 9.0752C62.9697 9.50977 63.1528 9.87842 63.519 10.1812C63.8901 10.479 64.5176 10.7524 65.4014 11.0015C66.29 11.2505 66.9834 11.5264 67.4814 11.8291C67.9844 12.127 68.3555 12.4761 68.5947 12.8765C68.8389 13.2769 68.9609 13.748 68.9609 14.29C68.9609 15.1543 68.624 15.8477 67.9502 16.3701C67.2764 16.8877 66.3755 17.1465 65.2476 17.1465C64.5151 17.1465 63.8315 17.0073 63.1968 16.729C62.562 16.4458 62.0713 16.0601 61.7246 15.5718C61.3828 15.0835 61.2119 14.5293 61.2119 13.9092H62.6255C62.6255 14.5537 62.8623 15.064 63.3359 15.4399C63.8145 15.811 64.4517 15.9966 65.2476 15.9966C65.9897 15.9966 66.5586 15.8452 66.9541 15.5425C67.3496 15.2397 67.5474 14.8271 67.5474 14.3047C67.5474 13.7822 67.3643 13.3794 66.998 13.0962C66.6318 12.8081 65.9678 12.5249 65.0059 12.2466ZM73.7363 16.0405C74.2197 16.0405 74.6421 15.894 75.0034 15.6011C75.3647 15.3081 75.5649 14.9419 75.604 14.5024H76.8857C76.8613 14.9565 76.7051 15.3887 76.417 15.7988C76.1289 16.209 75.7432 16.5361 75.2598 16.7803C74.7812 17.0244 74.2734 17.1465 73.7363 17.1465C72.6572 17.1465 71.7979 16.7876 71.1582 16.0698C70.5234 15.3472 70.2061 14.3608 70.2061 13.1108V12.8838C70.2061 12.1123 70.3477 11.4263 70.6309 10.8257C70.9141 10.2251 71.3193 9.75879 71.8467 9.42676C72.3789 9.09473 73.0063 8.92871 73.729 8.92871C74.6177 8.92871 75.355 9.19482 75.9409 9.72705C76.5317 10.2593 76.8467 10.9502 76.8857 11.7998H75.604C75.5649 11.2871 75.3696 10.8672 75.0181 10.54C74.6714 10.208 74.2417 10.042 73.729 10.042C73.0405 10.042 72.5059 10.291 72.125 10.7891C71.749 11.2822 71.561 11.9976 71.561 12.9351V13.1914C71.561 14.1045 71.749 14.8076 72.125 15.3008C72.501 15.7939 73.0381 16.0405 73.7363 16.0405ZM82.2397 10.291C82.0347 10.2568 81.8125 10.2397 81.5732 10.2397C80.6846 10.2397 80.0815 10.6182 79.7642 11.375V17H78.4092V9.0752H79.7275L79.7495 9.99072C80.1938 9.28271 80.8237 8.92871 81.6392 8.92871C81.9028 8.92871 82.103 8.96289 82.2397 9.03125V10.291ZM84.9644 17H83.6094V9.0752H84.9644V17ZM83.4995 6.97314C83.4995 6.75342 83.5654 6.56787 83.6973 6.4165C83.834 6.26514 84.0342 6.18945 84.2979 6.18945C84.5615 6.18945 84.7617 6.26514 84.8984 6.4165C85.0352 6.56787 85.1035 6.75342 85.1035 6.97314C85.1035 7.19287 85.0352 7.37598 84.8984 7.52246C84.7617 7.66895 84.5615 7.74219 84.2979 7.74219C84.0342 7.74219 83.834 7.66895 83.6973 7.52246C83.5654 7.37598 83.4995 7.19287 83.4995 6.97314ZM93.834 13.1255C93.834 14.3315 93.5581 15.3032 93.0063 16.0405C92.4546 16.7778 91.7075 17.1465 90.7651 17.1465C89.8032 17.1465 89.0464 16.8413 88.4946 16.231V20.0469H87.1396V9.0752H88.3774L88.4434 9.9541C88.9951 9.27051 89.7617 8.92871 90.7432 8.92871C91.6953 8.92871 92.4473 9.2876 92.999 10.0054C93.5557 10.7231 93.834 11.7217 93.834 13.001V13.1255ZM92.479 12.9717C92.479 12.0781 92.2886 11.3726 91.9077 10.855C91.5269 10.3374 91.0044 10.0786 90.3403 10.0786C89.52 10.0786 88.9048 10.4424 88.4946 11.1699V14.9565C88.8999 15.6792 89.52 16.0405 90.355 16.0405C91.0044 16.0405 91.5195 15.7842 91.9004 15.2715C92.2861 14.7539 92.479 13.9873 92.479 12.9717ZM97.4009 7.15625V9.0752H98.8804V10.1226H97.4009V15.0371C97.4009 15.3545 97.4668 15.5938 97.5986 15.7549C97.7305 15.9111 97.9551 15.9893 98.2725 15.9893C98.4287 15.9893 98.6436 15.96 98.917 15.9014V17C98.5605 17.0977 98.2139 17.1465 97.877 17.1465C97.2715 17.1465 96.8149 16.9634 96.5073 16.5972C96.1997 16.231 96.0459 15.7109 96.0459 15.0371V10.1226H94.603V9.0752H96.0459V7.15625H97.4009Z" fill="white"/>
</svg>
