<svg width="498" height="286" viewBox="0 0 498 286" fill="none" xmlns="http://www.w3.org/2000/svg">
<g clip-path="url(#clip0)">
<path d="M249 286C386.519 286 498 279.602 498 271.71C498 263.818 386.519 257.42 249 257.42C111.481 257.42 0 263.818 0 271.71C0 279.602 111.481 286 249 286Z" fill="#F2F2F2"/>
<path d="M453.372 0H79.3026V11.8751H453.372V0Z" fill="#F2F2F2"/>
<path d="M89.3127 8.83591C91.0137 8.83591 92.3926 7.45992 92.3926 5.76255C92.3926 4.06518 91.0137 2.68919 89.3127 2.68919C87.6116 2.68919 86.2327 4.06518 86.2327 5.76255C86.2327 7.45992 87.6116 8.83591 89.3127 8.83591Z" fill="#9A3AA6"/>
<path d="M99.3226 8.83591C101.024 8.83591 102.403 7.45992 102.403 5.76255C102.403 4.06518 101.024 2.68919 99.3226 2.68919C97.6215 2.68919 96.2426 4.06518 96.2426 5.76255C96.2426 7.45992 97.6215 8.83591 99.3226 8.83591Z" fill="#9A3AA6"/>
<path d="M109.333 8.83591C111.034 8.83591 112.413 7.45992 112.413 5.76255C112.413 4.06518 111.034 2.68919 109.333 2.68919C107.632 2.68919 106.253 4.06518 106.253 5.76255C106.253 7.45992 107.632 8.83591 109.333 8.83591Z" fill="#9A3AA6"/>
<path d="M79.5676 187.816L79.3024 188.043V268.15H453.371V127.439L448.913 127.777L79.5676 187.816Z" fill="#3F3D56"/>
<path d="M210.757 79.4364H106.298V83.6394H210.757V79.4364Z" fill="#3F3D56"/>
<path d="M210.757 88.683H106.298V92.886H210.757V88.683Z" fill="#3F3D56"/>
<path d="M141.68 97.9296H106.298V102.133H141.68V97.9296Z" fill="#3F3D56"/>
<path d="M423.781 196.121H319.322V200.324H423.781V196.121Z" fill="white"/>
<path d="M423.781 205.368H319.322V209.571H423.781V205.368Z" fill="white"/>
<path d="M354.704 214.614H319.322V218.817H354.704V214.614Z" fill="white"/>
<path d="M254.421 264.275C256.69 264.275 258.53 262.44 258.53 260.175C258.53 257.911 256.69 256.075 254.421 256.075C252.152 256.075 250.312 257.911 250.312 260.175C250.312 262.44 252.152 264.275 254.421 264.275Z" fill="#F2F2F2"/>
<path d="M266.337 264.685C268.606 264.685 270.446 262.85 270.446 260.585C270.446 258.321 268.606 256.485 266.337 256.485C264.068 256.485 262.228 258.321 262.228 260.585C262.228 262.85 264.068 264.685 266.337 264.685Z" fill="#F2F2F2"/>
<path d="M278.253 265.095C280.523 265.095 282.362 263.26 282.362 260.995C282.362 258.731 280.523 256.895 278.253 256.895C275.984 256.895 274.144 258.731 274.144 260.995C274.144 263.26 275.984 265.095 278.253 265.095Z" fill="#F2F2F2"/>
<path d="M266.375 263.865C268.19 263.865 269.662 262.397 269.662 260.585C269.662 258.773 268.19 257.305 266.375 257.305C264.559 257.305 263.088 258.773 263.088 260.585C263.088 262.397 264.559 263.865 266.375 263.865Z" fill="#3F3D56"/>
<path d="M176.126 127.545H140.745V135.6H176.126V127.545Z" fill="#3F3D56"/>
<path d="M386.431 236.542H351.049V244.597H386.431V236.542Z" fill="white"/>
<path opacity="0.3" d="M158.635 156.038C172.152 156.038 183.11 145.104 183.11 131.616C183.11 118.128 172.152 107.193 158.635 107.193C145.118 107.193 134.16 118.128 134.16 131.616C134.16 145.104 145.118 156.038 158.635 156.038Z" fill="#9A3AA6"/>
<path opacity="0.3" d="M158.635 147.897C167.646 147.897 174.952 140.608 174.952 131.616C174.952 122.624 167.646 115.334 158.635 115.334C149.623 115.334 142.318 122.624 142.318 131.616C142.318 140.608 149.623 147.897 158.635 147.897Z" fill="#9A3AA6"/>
<path d="M158.635 142.922C164.893 142.922 169.966 137.86 169.966 131.616C169.966 125.371 164.893 120.309 158.635 120.309C152.377 120.309 147.304 125.371 147.304 131.616C147.304 137.86 152.377 142.922 158.635 142.922Z" fill="#9A3AA6"/>
<path opacity="0.3" d="M364.577 95.512C378.094 95.512 389.052 84.5777 389.052 71.0896C389.052 57.6015 378.094 46.6672 364.577 46.6672C351.06 46.6672 340.102 57.6015 340.102 71.0896C340.102 84.5777 351.06 95.512 364.577 95.512Z" fill="#9A3AA6"/>
<path opacity="0.3" d="M364.577 87.3712C373.588 87.3712 380.894 80.0817 380.894 71.0896C380.894 62.0975 373.588 54.808 364.577 54.808C355.565 54.808 348.26 62.0975 348.26 71.0896C348.26 80.0817 355.565 87.3712 364.577 87.3712Z" fill="#9A3AA6"/>
<path d="M364.577 82.3963C370.835 82.3963 375.908 77.3341 375.908 71.0896C375.908 64.8451 370.835 59.783 364.577 59.783C358.319 59.783 353.246 64.8451 353.246 71.0896C353.246 77.3341 358.319 82.3963 364.577 82.3963Z" fill="#9A3AA6"/>
<path opacity="0.3" d="M368.939 265.034C382.456 265.034 393.414 254.1 393.414 240.612C393.414 227.124 382.456 216.19 368.939 216.19C355.422 216.19 344.464 227.124 344.464 240.612C344.464 254.1 355.422 265.034 368.939 265.034Z" fill="#9A3AA6"/>
<path opacity="0.3" d="M368.939 256.894C377.951 256.894 385.256 249.604 385.256 240.612C385.256 231.62 377.951 224.33 368.939 224.33C359.928 224.33 352.623 231.62 352.623 240.612C352.623 249.604 359.928 256.894 368.939 256.894Z" fill="#9A3AA6"/>
<path d="M368.939 251.919C375.197 251.919 380.27 246.857 380.27 240.612C380.27 234.368 375.197 229.305 368.939 229.305C362.681 229.305 357.608 234.368 357.608 240.612C357.608 246.857 362.681 251.919 368.939 251.919Z" fill="#9A3AA6"/>
<path d="M40.7565 49.4604L50.8301 49.8502L51.3324 36.9263L41.2588 36.5365L40.7565 49.4604Z" fill="#9A3AA6"/>
<path d="M86.7007 81.7988C86.7007 81.7988 100.651 75.1479 100.428 80.8918C100.205 86.6358 86.3659 90.4147 86.3659 90.4147L86.7007 81.7988Z" fill="#FFB9B9"/>
<path d="M79.047 130.4C79.047 130.4 85.6285 146.474 88.0603 158.073C90.492 169.672 94.1954 185.635 89.4317 196.956C84.668 208.277 71.1244 241.549 70.9849 245.139C70.8454 248.729 72.1449 252.375 69.2668 252.264C66.3886 252.152 50.7261 247.232 50.0902 245.05C49.4544 242.868 55.434 237.347 55.434 237.347L70.1994 191.178L54.7939 161.1L43.682 205.972L41.5056 261.975C41.5056 261.975 30.8241 258.686 29.2734 261.502C29.2734 261.502 24.4877 254.845 23.8798 251.946C23.2719 249.046 26.1399 193.788 26.1399 193.788C26.1399 193.788 16.3352 130.849 24.2502 131.156C32.1651 131.462 63.1672 112.527 79.047 130.4Z" fill="#2F2E41"/>
<path d="M69.3784 249.392C69.3784 249.392 76.6795 265.494 77.3711 266.24C78.0628 266.985 82.8205 274.36 79.2228 274.221C75.6251 274.082 67.1301 270.158 60.8774 264.163C54.6248 258.169 46.3809 247.783 47.1284 247.092C47.8758 246.402 52.9963 244.443 52.9963 244.443L69.3784 249.392Z" fill="#2F2E41"/>
<path d="M40.206 258.33C40.206 258.33 40.6466 265.538 41.974 268.465C43.3015 271.393 43.1341 275.701 39.5364 275.562C35.9387 275.422 26.6404 273.624 26.6404 273.624C26.6404 273.624 26.0883 269.289 26.8357 268.599C27.5832 267.908 30.7683 260.122 29.4129 257.912C28.0575 255.702 40.206 258.33 40.206 258.33Z" fill="#2F2E41"/>
<path d="M34.8835 24.4252C34.8835 24.4252 27.2137 36.3526 24.224 39.1132C21.2342 41.8738 29.6455 47.9519 29.6455 47.9519L44.7 49.9725C44.7 49.9725 44.5107 36.3028 45.286 34.8947C46.0614 33.4865 34.8835 24.4252 34.8835 24.4252Z" fill="#FFB9B9"/>
<path d="M47.9689 40.032C47.9689 40.032 44.8675 45.6646 41.9893 45.5532C39.1111 45.4419 24.224 39.1132 23.5881 36.9314C22.9523 34.7496 18.657 52.5602 18.657 52.5602L55.0848 116.529L63.9704 110.401L59.665 72.8429L56.129 52.572L47.9689 40.032Z" fill="#9A3AA6"/>
<path d="M22.2445 97.2815C23.6976 100.315 24.6051 103.478 24.4793 106.716C24.4737 106.86 24.4681 107.003 24.4554 107.146C24.1106 113.792 21.6573 121.477 20.7771 127.066C20.1385 131.076 20.3202 134.002 22.6716 134.69C28.3721 136.349 21.8404 137.534 43.8951 144.859C65.9498 152.184 69.7986 145.861 69.8544 144.425C69.9102 142.989 66.731 132.08 67.4785 131.39C68.2259 130.7 77.9368 140.424 80.8708 139.099C83.8047 137.774 81.2056 130.483 81.2056 130.483C81.2056 130.483 74.5961 115.127 74.7356 111.537C74.8751 107.947 64.7238 91.0155 64.7238 91.0155L57.8192 46.1658C57.8192 46.1658 55.1643 40.3104 51.5945 39.4532C48.0246 38.596 45.0628 40.6386 45.0628 40.6386L51.0364 53.8131L57.339 77.0673L56.2846 85.6554C56.2846 85.6554 48.9556 70.2713 44.142 64.3324C39.3284 58.3936 29.0655 44.3341 29.0655 44.3341C29.0655 44.3341 26.6694 36.2668 28.4782 33.856C30.2872 31.438 20.9332 31.0761 16.9448 40.9888C14.831 46.2425 11.3991 54.077 9.24915 61.3715C7.33337 67.8338 6.42843 73.8749 8.3264 77.328C11.2273 82.6032 18.5244 89.537 22.2445 97.2815Z" fill="#575A89"/>
<path opacity="0.1" d="M8.32642 77.328C11.2273 82.6032 18.5244 89.537 22.2445 97.2815C23.2162 93.7885 24.4015 90.1743 24.4015 90.1743C24.4015 90.1743 28.9479 65.9017 15.4999 59.6288C13.2716 59.4138 11.043 60.0351 9.24917 61.3715C7.33339 67.8338 6.42844 73.8749 8.32642 77.328Z" fill="black"/>
<path d="M61.712 75.7984L73.1131 79.1158L88.943 79.7284L90.5715 93.4538L64.5563 95.3234C64.5563 95.3234 58.0585 77.0952 61.712 75.7984Z" fill="#575A89"/>
<path d="M43.121 121.947C43.121 121.947 58.3734 124.473 54.8922 129.052C51.411 133.632 37.8992 128.817 37.8992 128.817L43.121 121.947Z" fill="#FFB9B9"/>
<path opacity="0.1" d="M24.4554 107.146C24.1106 113.792 21.6573 121.477 20.7771 127.066C25.636 131.655 30.2564 135.702 31.9977 135.77C35.5954 135.909 41.3797 135.414 43.5104 136.215C45.6411 137.017 46.8908 123.403 46.8908 123.403C46.8908 123.403 45.6191 119.039 39.9465 116.662C36.1176 115.054 28.7782 110.693 24.4554 107.146Z" fill="black"/>
<path d="M15.6672 55.3208C15.6672 55.3208 3.49083 53.4115 4.14864 73.571C4.80645 93.7305 2.86513 106.599 7.76241 110.384C12.6597 114.168 28.5674 131.323 32.1651 131.462C35.7628 131.601 41.5471 131.106 43.6778 131.907C45.8085 132.709 47.0582 119.095 47.0582 119.095C47.0582 119.095 45.7865 114.731 40.1139 112.354C34.4413 109.978 21.0769 101.551 21.1885 98.6788C21.3001 95.8068 24.5689 85.8663 24.5689 85.8663C24.5689 85.8663 29.1153 61.5937 15.6672 55.3208Z" fill="#575A89"/>
<path d="M45.6209 42.0865C54.3701 42.0865 61.4627 35.0091 61.4627 26.2788C61.4627 17.5484 54.3701 10.4711 45.6209 10.4711C36.8717 10.4711 29.779 17.5484 29.779 26.2788C29.779 35.0091 36.8717 42.0865 45.6209 42.0865Z" fill="#FFB9B9"/>
<path d="M56.2875 3.62172C56.6696 3.95023 57.1272 4.17936 57.6195 4.28871C57.8667 4.33268 58.1212 4.27729 58.3276 4.13465C58.534 3.992 58.6754 3.77368 58.721 3.52734C59.0835 4.27739 59.4924 5.07678 60.2324 5.46164C60.9724 5.8465 62.1167 5.52379 62.2233 4.69793C62.3314 5.32498 62.6094 5.91056 63.0272 6.39117C63.4864 6.82799 64.319 6.93824 64.7198 6.44763C64.3958 8.21484 64.5958 10.0322 64.494 11.8259C64.3922 13.6196 63.9129 15.5212 62.5548 16.7006C60.5742 18.4207 57.5959 17.9962 54.9905 17.6703C54.5965 17.5878 54.1877 17.6101 53.8051 17.735C52.8296 18.1498 52.8739 19.5048 52.8607 20.5628C52.7811 22.4192 52.0448 24.1873 50.7826 25.5533C49.5203 26.9193 47.8137 27.7947 45.9659 28.0241C44.9318 28.1833 43.8766 27.9264 43.0323 27.3096C42.2926 26.684 41.9147 25.6643 41.0671 25.1943C39.6883 24.4298 38.0161 25.5447 37.008 26.7553C35.9999 27.9659 35.0064 29.455 33.4448 29.6767C31.3794 29.9697 29.8063 27.8694 29.0345 25.9354C27.9697 23.2248 27.4596 20.3289 27.5342 17.4184C27.6088 14.508 28.2666 11.6419 29.4689 8.9891C33.7814 -0.391397 48.5133 -1.87511 56.2875 3.62172Z" fill="#2F2E41"/>
<path d="M436.573 254.974C442.152 264.468 453.405 268.227 453.405 268.227C453.405 268.227 455.612 256.593 450.032 247.099C444.453 237.605 433.2 233.846 433.2 233.846C433.2 233.846 430.994 245.48 436.573 254.974Z" fill="#F2F2F2"/>
<path d="M440.055 251.66C449.703 256.993 453.746 268.126 453.746 268.126C453.746 268.126 442.144 270.613 432.495 265.28C422.846 259.948 418.804 248.815 418.804 248.815C418.804 248.815 430.406 246.328 440.055 251.66Z" fill="#9A3AA6"/>
</g>
<defs>
<clipPath id="clip0">
<rect width="498" height="286" fill="white"/>
</clipPath>
</defs>
</svg>
