<svg width="84" height="23" viewBox="0 0 84 23" fill="none" xmlns="http://www.w3.org/2000/svg">
<path fill-rule="evenodd" clip-rule="evenodd" d="M78.2107 9.52497C78.1353 9.53946 78.0594 9.69936 78.0594 9.78648C78.0444 10.3681 78.0293 11.9091 78.0293 12.9557C78.0293 12.9849 78.0745 13.043 78.12 13.043C78.3471 13.0575 78.8921 13.072 79.3615 13.072C80.0125 13.072 80.3909 12.9849 80.6031 12.8978C81.1479 12.636 81.4053 12.069 81.4053 11.4437C81.4053 10.0338 80.3758 9.49583 78.8466 9.49583C78.7406 9.48133 78.4381 9.48133 78.2107 9.52497ZM82.117 16.0233C82.117 14.584 81.0118 13.7844 79.0133 13.7844C78.9224 13.7844 78.2865 13.7699 78.1351 13.7989C78.0896 13.8135 78.0293 13.8427 78.0293 13.8863C78.0293 14.9183 78.014 16.5612 78.0594 17.2008C78.0896 17.477 78.3018 17.8696 78.5592 17.9858C78.8315 18.1312 79.4523 18.1602 79.8763 18.1602C81.0723 18.1602 82.117 17.5206 82.117 16.0233ZM75.1224 8.72548C75.2737 8.72548 75.7278 8.76896 76.8936 8.76896C77.9989 8.76896 78.877 8.73998 79.9519 8.73998C81.269 8.73998 83.0858 9.19052 83.0858 11.0805C83.0858 12.0109 82.4045 12.7524 81.5113 13.1158C81.466 13.1303 81.466 13.1593 81.5113 13.1738C82.783 13.4792 83.9035 14.2351 83.9035 15.6597C83.9035 17.0554 82.9951 17.9422 81.6779 18.4946C80.8754 18.8289 79.8763 18.9452 78.8619 18.9452C78.0896 18.9452 76.0156 18.8581 74.865 18.8872C74.7439 18.8434 74.971 18.3201 75.0768 18.233C75.3495 18.2183 75.5613 18.2038 75.849 18.1166C76.2579 18.015 76.3032 17.8985 76.3637 17.3026C76.3941 16.7938 76.3941 14.9909 76.3941 13.7118C76.3941 11.9527 76.4093 10.7607 76.3941 10.1792C76.379 9.72866 76.2124 9.5831 75.8794 9.49583C75.6218 9.45235 75.198 9.39406 74.8497 9.35058C74.7739 9.2778 75.0314 8.78346 75.1224 8.72548ZM66.3864 17.7678C66.75 18.0438 67.4615 18.16 68.0974 18.16C68.9149 18.16 69.7325 18.015 70.5198 17.3314C71.3222 16.6339 71.8823 15.5581 71.8823 13.8427C71.8823 12.1997 71.2313 10.8623 69.899 10.0774C69.142 9.62658 68.173 9.43785 67.0527 9.43785C66.7196 9.43785 66.4017 9.45235 66.205 9.53946C66.1593 9.56861 66.0535 9.69936 66.0535 9.77198C66.0232 10.0628 66.0232 12.3015 66.0232 13.61C66.0232 14.9619 66.0232 16.8519 66.0535 17.0699C66.0535 17.2881 66.1593 17.6224 66.3866 17.7678H66.3864ZM62.9496 8.72533C63.2374 8.72533 64.3425 8.76896 64.8724 8.76896C65.8265 8.76896 66.5076 8.72548 68.3092 8.72548C69.8232 8.72548 71.095 9.1179 72.0034 9.85926C73.1085 10.7752 73.6841 12.04 73.6841 13.5808C73.6841 15.7761 72.6393 17.0409 71.5946 17.7678C70.5501 18.5091 69.1874 18.9452 67.2495 18.9452C66.22 18.9452 64.4487 18.9162 62.98 18.9016H62.9649C62.8893 18.7708 63.086 18.262 63.207 18.2475C63.6008 18.2038 63.7068 18.1892 63.9036 18.1167C64.2214 18.0003 64.2821 17.8404 64.3276 17.3026C64.3729 16.2994 64.3578 15.0929 64.3578 13.7262C64.3578 12.7524 64.3729 10.8478 64.3425 10.2372C64.2972 9.7285 64.0702 9.59759 63.6159 9.51032C63.3888 9.46684 63.086 9.40855 62.6622 9.36507C62.6015 9.26315 62.874 8.8126 62.9496 8.72548V8.72533Z" fill="white"/>
<path fill-rule="evenodd" clip-rule="evenodd" d="M44.6304 18.3346C44.2519 18.291 43.9794 18.233 43.6463 18.0876C43.6009 18.0585 43.5251 17.9132 43.5251 17.8549C43.4949 17.3461 43.4949 15.8924 43.4949 14.9185C43.4949 14.1333 43.3587 13.4501 43.0104 12.9704C42.6016 12.4178 42.0113 12.0981 41.2541 12.0981C40.588 12.0981 39.6947 12.5342 38.9528 13.1448C38.9377 13.1593 38.8166 13.2612 38.8317 13.1012C38.8317 12.9413 38.8621 12.6215 38.8772 12.4033C38.8924 12.1998 38.7712 12.0981 38.7712 12.0981C38.2867 12.3307 36.9242 12.636 36.4245 12.6794C36.0612 12.7524 35.9703 13.0867 36.349 13.2029H36.3641C36.7726 13.3192 37.0453 13.4501 37.2571 13.581C37.4085 13.6973 37.3934 13.8572 37.3934 13.9881C37.4085 15.0782 37.4085 16.7501 37.3632 17.666C37.3481 18.0295 37.2421 18.1602 36.9695 18.2184L36.9998 18.2039C36.7878 18.2475 36.6213 18.291 36.3639 18.3201C36.273 18.4074 36.273 18.8726 36.3639 18.9744C36.5304 18.9744 37.4085 18.9307 38.1355 18.9307C39.1346 18.9307 39.6494 18.9744 39.9067 18.9744C40.0127 18.8581 40.043 18.4219 39.9825 18.3201C39.6947 18.3056 39.4827 18.2766 39.286 18.2184C39.0135 18.1601 38.9377 18.0295 38.9225 17.7242C38.8924 16.9535 38.8924 15.3254 38.8924 14.2206C38.8924 13.9153 38.9832 13.7699 39.0739 13.6826C39.4222 13.392 39.9825 13.1884 40.482 13.1884C40.9665 13.1884 41.2843 13.3338 41.5266 13.5229C41.8597 13.7844 41.9657 14.1625 42.0111 14.4386C42.0867 15.0637 42.0566 16.2994 42.0566 17.3752C42.0566 17.9567 42.0111 18.1021 41.7842 18.1747C41.6781 18.2184 41.4056 18.2766 41.0876 18.3055C40.9816 18.4074 41.012 18.8581 41.0876 18.9599C41.5266 18.9599 42.0415 18.9162 42.7984 18.9162C43.737 18.9162 44.3428 18.9599 44.5851 18.9599C44.6606 18.8726 44.6909 18.451 44.6304 18.3346ZM48.8241 12.7815C48.0219 12.7815 47.5221 13.3775 47.5221 14.3077C47.5221 15.2528 47.9612 16.3431 49.2026 16.3431C49.4146 16.3431 49.8083 16.2558 49.9898 16.0523C50.2776 15.7907 50.4744 15.2673 50.4744 14.7148C50.4744 13.5082 49.8536 12.7814 48.8241 12.7814V12.7815ZM48.7181 19.2069C48.4155 19.2069 48.2033 19.2942 48.0671 19.3669C47.4312 19.7592 47.1436 20.1373 47.1436 20.5881C47.1436 21.0095 47.3102 21.3438 47.6736 21.6346C48.1126 21.9981 48.7181 22.1726 49.4902 22.1726C51.0345 22.1726 51.7159 21.373 51.7159 20.5881C51.7159 20.0355 51.4281 19.6721 50.8378 19.4687C50.4139 19.2942 49.6418 19.2069 48.7181 19.2069ZM48.8241 22.9868C47.9006 22.9868 47.2344 22.7977 46.6592 22.3762C46.0989 21.9691 45.8567 21.3585 45.8567 20.9369C45.8567 20.8207 45.8871 20.5007 46.1596 20.2101C46.326 20.0355 46.6895 19.7012 47.5525 19.1343C47.5827 19.1198 47.5978 19.1053 47.5978 19.076C47.5978 19.047 47.5674 19.0178 47.5372 19.0035C46.8257 18.7418 46.6137 18.3201 46.553 18.0876V18.0585C46.5381 17.9712 46.5077 17.8841 46.6441 17.7968C46.7501 17.7242 46.9015 17.6369 47.0678 17.5353C47.3253 17.3897 47.5978 17.2298 47.7643 17.0989C47.7946 17.0699 47.7946 17.0409 47.7946 17.0118C47.7946 16.9827 47.7643 16.9535 47.7339 16.9392C46.6744 16.6047 46.1445 15.8487 46.1445 14.7148C46.1445 13.9734 46.4926 13.3047 47.1133 12.8831C47.5372 12.5633 48.5971 12.1708 49.2935 12.1708H49.339C50.0505 12.1853 50.4441 12.3307 51.0042 12.5197C51.3071 12.6215 51.5948 12.665 51.9886 12.665C52.5789 12.665 52.8363 12.4906 53.0481 12.2872C53.0633 12.3162 53.0937 12.389 53.1088 12.5778C53.1239 12.7669 53.0633 13.043 52.9119 13.2466C52.7908 13.4065 52.5183 13.5229 52.2458 13.5229H52.17C51.8975 13.4937 51.7763 13.4646 51.7763 13.4646L51.7159 13.4937C51.7008 13.5229 51.7159 13.5519 51.731 13.5955L51.7463 13.6247C51.7764 13.7554 51.837 14.1478 51.837 14.2497C51.837 15.4418 51.3374 15.965 50.8075 16.3576C50.2927 16.721 49.7024 16.9535 49.0361 17.0118C49.021 17.0118 48.9606 17.0118 48.8241 17.0263C48.7485 17.0263 48.6425 17.0409 48.6273 17.0409H48.6122C48.4911 17.0699 48.1884 17.2153 48.1884 17.4623C48.1884 17.6804 48.3246 17.9422 48.9756 17.9858C49.1117 18.0003 49.2479 18.0003 49.3995 18.015C50.2625 18.0729 51.3374 18.1457 51.837 18.3056C52.5334 18.5526 52.9725 19.1487 52.9725 19.8611C52.9725 20.9371 52.1702 21.9401 50.8378 22.565C50.1868 22.8413 49.5357 22.9868 48.8241 22.9868ZM57.4538 12.8542C57.136 12.8542 56.8483 12.9266 56.6363 13.072C56.046 13.421 55.7431 14.1188 55.7431 15.1364C55.7431 17.0409 56.7423 18.3784 58.1655 18.3784C58.5895 18.3784 58.9225 18.262 59.2101 18.0295C59.6491 17.6804 59.8764 16.9827 59.8764 16.0086C59.8764 14.1188 58.8922 12.854 57.454 12.854L57.4538 12.8542ZM57.7265 19.0761C55.1527 19.0761 54.2292 17.259 54.2292 15.5581C54.2292 14.366 54.7287 13.4501 55.7279 12.7959C56.4396 12.3743 57.2875 12.1418 58.0444 12.1418C60.0125 12.1418 61.3903 13.4937 61.3903 15.4418C61.3903 16.7646 60.8453 17.8113 59.8006 18.451C59.301 18.7708 58.438 19.0761 57.7263 19.0761H57.7265ZM30.7471 12.854C30.4291 12.854 30.1415 12.9266 29.9294 13.072C29.3391 13.421 29.0362 14.1188 29.0362 15.1364C29.0362 17.0409 30.0354 18.3784 31.4586 18.3784C31.8825 18.3784 32.2156 18.262 32.5034 18.0295C32.9422 17.6804 33.1694 16.9827 33.1694 16.0086C33.1694 14.1188 32.2005 12.854 30.7471 12.854ZM31.0196 19.0761C28.4458 19.0761 27.5223 17.259 27.5223 15.5581C27.5223 14.366 28.0218 13.4501 29.021 12.7959C29.7327 12.3743 30.5805 12.1418 31.3375 12.1418C33.3058 12.1418 34.6834 13.4937 34.6834 15.4418C34.6834 16.7646 34.1384 17.8113 33.0937 18.451C32.6092 18.7708 31.7462 19.0761 31.0196 19.0761ZM13.7146 18.9307C13.6842 18.8872 13.6539 18.7563 13.6691 18.5964C13.6691 18.48 13.6995 18.4074 13.7146 18.3784C14.0325 18.3346 14.1991 18.291 14.3807 18.2475C14.6835 18.1747 14.8046 18.015 14.8197 17.6515C14.8653 16.7793 14.8653 15.1219 14.8501 13.9734V13.9443C14.8501 13.8135 14.8501 13.6535 14.6835 13.5372C14.4412 13.392 14.1536 13.2612 13.7751 13.1591C13.639 13.1158 13.5481 13.043 13.5632 12.9559C13.5632 12.8686 13.654 12.7669 13.8509 12.7377C14.3505 12.6941 15.6523 12.389 16.1672 12.1708C16.1975 12.1998 16.243 12.2872 16.243 12.4034L16.2279 12.5632C16.2126 12.7232 16.1975 12.9123 16.1975 13.1012C16.1975 13.1593 16.2582 13.2029 16.3186 13.2029C16.3489 13.2029 16.3793 13.1884 16.4095 13.1738C17.3784 12.4469 18.2565 12.1853 18.7106 12.1853C19.4527 12.1853 20.028 12.5197 20.4671 13.2174C20.4973 13.2612 20.5276 13.2757 20.5731 13.2757C20.6032 13.2757 20.6485 13.2612 20.6638 13.2321C21.5571 12.5778 22.4504 12.1853 23.0407 12.1853C24.4487 12.1853 25.2815 13.1884 25.2815 14.8893C25.2815 15.369 25.2815 15.9941 25.2664 16.5612C25.2664 17.0699 25.2513 17.5351 25.2513 17.8696C25.2513 17.942 25.3571 18.1747 25.5236 18.2184C25.7356 18.3201 26.0234 18.3638 26.4019 18.4219H26.417C26.4473 18.5237 26.3868 18.9016 26.3262 18.9744C26.2353 18.9744 26.099 18.9744 25.9477 18.9599C25.5645 18.9407 25.1808 18.9309 24.797 18.9307C23.8584 18.9307 23.3739 18.9452 22.9044 18.9744C22.8744 18.8581 22.8591 18.5092 22.9044 18.4219C23.1771 18.3784 23.3132 18.3346 23.4799 18.2911C23.7828 18.2039 23.8584 18.0729 23.8737 17.695C23.8737 17.4189 23.934 15.0637 23.8432 14.4968C23.7524 13.9153 23.2981 13.2321 22.2988 13.2321C21.9203 13.2321 21.33 13.3775 20.7547 13.7989C20.7245 13.828 20.694 13.9007 20.694 13.9443V13.9589C20.7547 14.2641 20.7547 14.6132 20.7547 15.151V16.0959C20.7547 16.7501 20.7394 17.3607 20.7547 17.8258C20.7547 18.1457 20.9516 18.2183 21.1181 18.2766C21.209 18.291 21.2693 18.3056 21.3451 18.3201C21.4813 18.3493 21.6176 18.3784 21.8296 18.4219C21.86 18.4802 21.86 18.6691 21.8145 18.829C21.7993 18.9162 21.7689 18.9597 21.7538 18.9744C21.2392 18.9599 20.7092 18.9452 19.9372 18.9452C19.7101 18.9452 19.3163 18.9599 18.9833 18.9599C18.7106 18.9599 18.4534 18.9744 18.3021 18.9744C18.2868 18.9452 18.2565 18.8436 18.2565 18.6835C18.2565 18.5528 18.2868 18.451 18.3172 18.4219C18.3928 18.4074 18.4534 18.3929 18.5292 18.3929C18.7106 18.3638 18.8622 18.3346 19.0135 18.3056C19.2711 18.233 19.3618 18.1021 19.3769 17.7823C19.4223 17.0554 19.4678 14.9766 19.3618 14.4531C19.1802 13.61 18.6806 13.1884 17.878 13.1884C17.4088 13.1884 16.8182 13.4065 16.3338 13.7556C16.258 13.8135 16.1975 13.9588 16.1975 14.0897V14.9475C16.1975 15.9941 16.1975 17.3026 16.2126 17.8696C16.2279 18.0438 16.2882 18.2475 16.6365 18.3201C16.7123 18.3346 16.8334 18.3638 16.9848 18.3784L17.2572 18.4219C17.2877 18.5092 17.2724 18.8581 17.2119 18.9744C17.0605 18.9744 16.8789 18.9599 16.6667 18.9599C16.3489 18.9452 15.9401 18.9307 15.486 18.9307C14.956 18.9307 14.5776 18.9452 14.2747 18.9599C14.0627 18.9307 13.8962 18.9307 13.7146 18.9307Z" fill="white"/>
<path fill-rule="evenodd" clip-rule="evenodd" d="M5.75096 22.4198L5.13031 22.2161C5.13031 22.2161 5.20611 19.1779 4.07047 18.9599C3.31365 18.1166 4.19187 -16.8025 6.91695 18.8434C6.91695 18.8434 5.97819 19.294 5.81166 20.0646C5.62988 20.8207 5.75096 22.4198 5.75096 22.4198Z" fill="white"/>
<path fill-rule="evenodd" clip-rule="evenodd" d="M5.75096 22.4198L5.13031 22.2161C5.13031 22.2161 5.20611 19.1779 4.07047 18.9599C3.31365 18.1166 4.19187 -16.8025 6.91695 18.8434C6.91695 18.8434 5.97819 19.294 5.81166 20.0646C5.62988 20.8207 5.75096 22.4198 5.75096 22.4198Z" fill="white"/>
<path fill-rule="evenodd" clip-rule="evenodd" d="M6.08411 19.4832C6.08411 19.4832 11.5195 16.0523 10.2475 8.91422C9.02132 3.72457 6.12955 2.02367 5.8116 1.36943C5.46346 0.904235 5.13025 0.0902557 5.13025 0.0902557L5.35748 14.5257C5.35748 14.5404 4.88809 18.9452 6.08427 19.4834" fill="white"/>
<path fill-rule="evenodd" clip-rule="evenodd" d="M6.08411 19.4832C6.08411 19.4832 11.5195 16.0523 10.2475 8.91422C9.02132 3.72457 6.12955 2.02367 5.8116 1.36943C5.46346 0.904235 5.13025 0.0902557 5.13025 0.0902557L5.35748 14.5257C5.35748 14.5404 4.88809 18.9452 6.08427 19.4834" fill="white"/>
<path fill-rule="evenodd" clip-rule="evenodd" d="M4.81245 19.6721C4.81245 19.6721 -0.289891 16.3284 0.0129682 10.4409C0.30057 4.5532 3.90387 1.66024 4.60032 1.13691C5.05461 0.671714 5.0697 0.497166 5.10005 0.0319672C5.41801 0.686207 5.35747 9.81579 5.40275 10.8914C5.53892 15.0346 5.16059 18.8872 4.81245 19.6721Z" fill="white"/>
<path fill-rule="evenodd" clip-rule="evenodd" d="M4.81245 19.6721C4.81245 19.6721 -0.289891 16.3284 0.0129682 10.4409C0.30057 4.5532 3.90387 1.66024 4.60032 1.13691C5.05461 0.671714 5.0697 0.497166 5.10005 0.0319672C5.41801 0.686207 5.35747 9.81579 5.40275 10.8914C5.53892 15.0346 5.16059 18.8872 4.81245 19.6721Z" fill="white"/>
</svg>
