<svg width="61" height="37" viewBox="0 0 61 37" fill="none" xmlns="http://www.w3.org/2000/svg">
<path d="M14.3934 9.64646H25.8986V10.5656H15.448V17.4827H25.2754V18.4017H15.448V25.996H26.0184V26.915H14.3934V9.64646ZM26.9294 9.64646H28.1517L33.5687 17.2408L39.1055 9.64634L46.6365 0L34.2638 18.039L40.6396 26.915H39.3692L33.5687 18.8371L27.7442 26.915H26.4978L32.9215 18.0389L26.9292 9.64646H26.9294ZM41.0949 10.5656V9.64634H54.2061V10.5655H48.1658V26.9149H47.1112V10.5656H41.0949ZM0 9.64634H1.31829L19.4968 36.986L11.9846 26.9149L1.10253 10.9525L1.05463 26.9152H0V9.64634ZM54.0999 25.7185C53.8843 25.7185 53.7228 25.5508 53.7228 25.3339C53.7228 25.1171 53.8843 24.9493 54.0999 24.9493C54.3179 24.9493 54.4769 25.117 54.4769 25.3339C54.4769 25.5507 54.3179 25.7185 54.0999 25.7185ZM55.1361 24.7067H55.7005C55.7081 25.0138 55.9313 25.2203 56.2596 25.2203C56.6265 25.2203 56.8342 24.9983 56.8342 24.5827V21.9496H57.4089V24.5852C57.4089 25.3339 56.9779 25.7651 56.2648 25.7651C55.5952 25.7651 55.1361 25.3468 55.1361 24.7065V24.7067ZM58.1604 24.6731H58.7299C58.7786 25.0267 59.1223 25.2512 59.6175 25.2512C60.0792 25.2512 60.4178 25.0112 60.4178 24.6808C60.4178 24.3969 60.2022 24.2265 59.7123 24.1103L59.2352 23.9942C58.5656 23.8366 58.2605 23.5114 58.2605 22.9642C58.2605 22.3008 58.7991 21.8593 59.6071 21.8593C60.3587 21.8593 60.9077 22.3007 60.941 22.928H60.3818C60.3279 22.5847 60.0303 22.3704 59.5994 22.3704C59.1455 22.3704 58.8428 22.5899 58.8428 22.9254C58.8428 23.1912 59.0376 23.3436 59.5199 23.4572L59.9277 23.5579C60.687 23.736 61 24.0458 61 24.606C61 25.3184 60.4511 25.7651 59.5739 25.7651C58.753 25.7651 58.2014 25.339 58.1604 24.673V24.6731Z" fill="white"/>
</svg>
