<svg width="57" height="35" viewBox="0 0 57 35" fill="none" xmlns="http://www.w3.org/2000/svg">
<path d="M28.1908 34.9174C27.9976 34.9174 27.8172 34.8659 27.6496 34.7756L25.9361 33.7574C25.6784 33.6156 25.8072 33.564 25.8846 33.5383C26.2324 33.4223 26.2968 33.3964 26.6576 33.1903C26.6963 33.1645 26.7479 33.1774 26.7865 33.2032L28.1007 33.9894C28.1522 34.0152 28.2166 34.0152 28.2552 33.9894L33.396 31.0119C33.4475 30.9862 33.4734 30.9345 33.4734 30.8702V24.9282C33.4734 24.8636 33.4475 24.8122 33.396 24.7864L28.2552 21.8218C28.2037 21.796 28.1392 21.796 28.1007 21.8218L22.9598 24.7864C22.9083 24.8121 22.8825 24.8766 22.8825 24.9281V30.8701C22.8825 30.9217 22.9083 30.9861 22.9598 31.0119L24.3642 31.8239C25.1244 32.2106 25.6011 31.7595 25.6011 31.3084V25.4437C25.6011 25.3664 25.6655 25.289 25.7557 25.289H26.4128C26.4901 25.289 26.5674 25.3535 26.5674 25.4437V31.3084C26.5674 32.3266 26.0133 32.9195 25.047 32.9195C24.7507 32.9195 24.5189 32.9195 23.8617 32.5972L22.5089 31.8239C22.1739 31.6307 21.9678 31.2697 21.9678 30.883V24.941C21.9678 24.5544 22.1739 24.1934 22.5089 24.0001L27.6496 21.0227C27.9718 20.8422 28.4099 20.8422 28.732 21.0227L33.8727 24.0001C34.2077 24.1934 34.414 24.5544 34.414 24.941V30.883C34.414 31.2697 34.2077 31.6307 33.8727 31.8239L28.732 34.8014C28.5644 34.8788 28.3712 34.9174 28.1909 34.9174H28.1908ZM29.7755 30.8315C27.5209 30.8315 27.057 29.8003 27.057 28.9239C27.057 28.8465 27.1214 28.7692 27.2116 28.7692H27.8816C27.9589 28.7692 28.0233 28.8207 28.0233 28.8981C28.1264 29.5812 28.4227 29.9163 29.7885 29.9163C30.8707 29.9163 31.3347 29.6714 31.3347 29.0914C31.3347 28.7563 31.2057 28.5115 29.5179 28.3438C28.1135 28.202 27.2374 27.8927 27.2374 26.7714C27.2374 25.7273 28.1136 25.1086 29.5823 25.1086C31.2315 25.1086 32.0432 25.6758 32.1464 26.913C32.1464 26.9518 32.1334 26.9904 32.1077 27.0291C32.0818 27.0549 32.0432 27.0806 32.0046 27.0806H31.3346C31.2701 27.0806 31.2057 27.0291 31.1929 26.9646C31.0383 26.2558 30.6388 26.0237 29.5823 26.0237C28.397 26.0237 28.2552 26.4362 28.2552 26.7455C28.2552 27.1193 28.4227 27.2353 30.0203 27.4415C31.6051 27.6478 32.3525 27.9443 32.3525 29.0527C32.3396 30.187 31.4119 30.8315 29.7755 30.8315Z" fill="white"/>
<path d="M12.2401 11.6779C12.2401 11.4459 12.1112 11.2267 11.9051 11.1107L6.44215 7.96572C6.35185 7.91408 6.24884 7.88832 6.14583 7.87538H6.09422C5.99121 7.87538 5.8881 7.91408 5.79791 7.96572L0.334994 11.1107C0.128758 11.2267 0 11.4458 0 11.6779L0.0129316 20.1333C0.0129316 20.2493 0.0773664 20.3652 0.180373 20.4169C0.283491 20.4813 0.412249 20.4813 0.502547 20.4169L3.74937 18.5608C3.9555 18.4448 4.08437 18.2257 4.08437 17.9937V14.0366C4.08437 13.8046 4.21312 13.5855 4.41936 13.4695L5.79791 12.6703C5.90103 12.6059 6.01696 12.58 6.1329 12.58C6.24884 12.58 6.36478 12.6059 6.45508 12.6703L7.83363 13.4695C8.03986 13.5855 8.16862 13.8045 8.16862 14.0366V17.9937C8.16862 18.2257 8.29749 18.4448 8.50361 18.5608L11.7504 20.4169C11.8536 20.4813 11.9823 20.4813 12.0854 20.4169C12.1885 20.3652 12.253 20.2493 12.253 20.1333L12.2401 11.6779Z" fill="white"/>
<path d="M38.4981 0.0387265C38.3951 -0.0129089 38.2662 -0.0129089 38.1759 0.0387265C38.0729 0.103187 38.0085 0.206235 38.0085 0.322219V8.70043C38.0085 8.77771 37.9699 8.855 37.8925 8.90663C37.8153 8.94522 37.7379 8.94522 37.6606 8.90663L36.2949 8.12039C36.1948 8.06336 36.0816 8.03337 35.9663 8.03337C35.8511 8.03337 35.7379 8.06336 35.6378 8.12039L30.1748 11.2783C29.9687 11.3943 29.8398 11.6134 29.8398 11.8454V18.1483C29.8398 18.3802 29.9687 18.5995 30.1748 18.7155L35.6378 21.8734C35.7379 21.9304 35.8511 21.9604 35.9663 21.9604C36.0816 21.9604 36.1948 21.9304 36.2949 21.8734L41.7578 18.7155C41.964 18.5995 42.0928 18.3803 42.0928 18.1483V2.43615C42.0928 2.19124 41.964 1.97221 41.7578 1.85611L38.4982 0.0387265H38.4981ZM37.9956 16.0731C37.9956 16.1376 37.9699 16.1891 37.9183 16.2149L36.0501 17.2976C36.024 17.3103 35.9954 17.3169 35.9663 17.3169C35.9373 17.3169 35.9087 17.3103 35.8826 17.2976L34.0144 16.2149C33.9628 16.1891 33.937 16.1247 33.937 16.0731V13.9077C33.937 13.8432 33.9628 13.7917 34.0144 13.7659L35.8826 12.6832C35.9087 12.6704 35.9373 12.6638 35.9663 12.6638C35.9954 12.6638 36.024 12.6704 36.0501 12.6832L37.9183 13.7659C37.9699 13.7916 37.9956 13.8562 37.9956 13.9077V16.0731Z" fill="white"/>
<path d="M56.6779 13.8562C56.8841 13.7402 57.0001 13.521 57.0001 13.289V11.7552C57.0001 11.5232 56.8712 11.3041 56.6779 11.1881L51.2537 8.04312C51.1536 7.98611 51.0403 7.95613 50.9251 7.95613C50.8099 7.95613 50.6967 7.98611 50.5966 8.04312L45.1337 11.2009C44.9275 11.3169 44.7987 11.536 44.7987 11.7681V18.071C44.7987 18.303 44.9275 18.5221 45.1337 18.6381L50.5579 21.7315C50.7642 21.8475 51.0089 21.8475 51.2022 21.7315L54.4876 19.9014C54.5907 19.8498 54.6551 19.7338 54.6551 19.6178C54.6551 19.5018 54.5907 19.3858 54.4876 19.3342L48.9989 16.1763C48.8959 16.112 48.8315 16.0088 48.8315 15.8928V13.9207C48.8315 13.8048 48.8959 13.6888 48.9989 13.6371L50.7126 12.6575C50.7627 12.6259 50.8208 12.6092 50.88 12.6092C50.9393 12.6092 50.9974 12.6259 51.0475 12.6575L52.7611 13.6371C52.8642 13.7016 52.9286 13.8046 52.9286 13.9207V15.4675C52.9286 15.5835 52.9931 15.6994 53.0961 15.751C53.1992 15.8154 53.328 15.8154 53.4311 15.751L56.6779 13.8562Z" fill="white"/>
<path d="M50.8413 13.5597C50.8604 13.5471 50.8828 13.5404 50.9056 13.5404C50.9285 13.5404 50.9509 13.5471 50.97 13.5597L52.0137 14.1655C52.0524 14.1912 52.0781 14.2299 52.0781 14.2815V15.4931C52.0781 15.5446 52.0524 15.5833 52.0137 15.6091L50.97 16.2149C50.9509 16.2275 50.9285 16.2342 50.9056 16.2342C50.8828 16.2342 50.8604 16.2275 50.8413 16.2149L49.7976 15.6091C49.7589 15.5833 49.7332 15.5446 49.7332 15.4931V14.2815C49.7332 14.2299 49.7589 14.1912 49.7976 14.1655L50.8413 13.5597Z" fill="white"/>
<mask id="mask0" mask-type="alpha" maskUnits="userSpaceOnUse" x="14" y="7" width="14" height="15">
<path d="M21.3749 8.06886C21.2748 8.01185 21.1616 7.98187 21.0464 7.98187C20.9312 7.98187 20.818 8.01185 20.7178 8.06886L15.2936 11.2008C15.0874 11.3168 14.9714 11.5359 14.9714 11.7679V18.0451C14.9714 18.2771 15.1003 18.4962 15.2936 18.6122L20.7178 21.7443C20.818 21.8013 20.9312 21.8313 21.0464 21.8313C21.1616 21.8313 21.2748 21.8013 21.3749 21.7443L26.7992 18.6122C27.0054 18.4962 27.1214 18.2771 27.1214 18.0451V11.768C27.1214 11.536 26.9924 11.3169 26.7992 11.2009L21.3749 8.06886Z" fill="white"/>
</mask>
<g mask="url(#mask0)">
<path d="M21.3749 8.06886C21.2748 8.01185 21.1616 7.98187 21.0464 7.98187C20.9312 7.98187 20.818 8.01185 20.7178 8.06886L15.2936 11.2008C15.0874 11.3168 14.9714 11.5359 14.9714 11.7679V18.0451C14.9714 18.2771 15.1003 18.4962 15.2936 18.6122L20.7178 21.7443C20.818 21.8013 20.9312 21.8313 21.0464 21.8313C21.1616 21.8313 21.2748 21.8013 21.3749 21.7443L26.7992 18.6122C27.0054 18.4962 27.1214 18.2771 27.1214 18.0451V11.768C27.1214 11.536 26.9924 11.3169 26.7992 11.2009L21.3749 8.06886Z" fill="white"/>
<path d="M26.8121 11.2009L21.3621 8.06887C21.3086 8.04182 21.2524 8.02022 21.1946 8.00441L15.0874 18.4707C15.138 18.5325 15.1991 18.5848 15.2679 18.6254L20.7179 21.7575C20.8725 21.8477 21.0529 21.8735 21.2203 21.8218L26.9539 11.3299C26.9152 11.2784 26.8636 11.2396 26.8121 11.201V11.2009Z" fill="white"/>
<path fill-rule="evenodd" clip-rule="evenodd" d="M26.825 18.6123C26.9796 18.5221 27.0955 18.3674 27.1471 18.1999L21.1686 7.99147C21.014 7.96571 20.8464 7.97853 20.7049 8.06875L15.2935 11.1881L21.1299 21.8347C21.2148 21.8208 21.2973 21.7947 21.3747 21.7574L26.8248 18.6124L26.825 18.6123Z" fill="white"/>
<path fill-rule="evenodd" clip-rule="evenodd" d="M26.825 18.6123L21.3879 21.7444C21.3111 21.7836 21.2284 21.8097 21.1431 21.8217L21.2462 22.0151L27.276 18.5222V18.4448L27.1213 18.187C27.0956 18.3674 26.9797 18.5221 26.825 18.6123Z" fill="white"/>
<path fill-rule="evenodd" clip-rule="evenodd" d="M26.825 18.6123L21.3879 21.7444C21.3111 21.7836 21.2284 21.8097 21.1431 21.8217L21.2462 22.0151L27.276 18.5222V18.4448L27.1213 18.187C27.0956 18.3674 26.9797 18.5221 26.825 18.6123Z" fill="white"/>
</g>
</svg>
