<svg width="23" height="23" viewBox="0 0 23 23" fill="none" xmlns="http://www.w3.org/2000/svg">
<g clip-path="url(#clip0)">
<path d="M21.3978 7.52459L20.7129 7.14294C21.7687 5.63787 22.3976 3.381 21.6077 0C21.6077 0 19.8295 4.81778 16.2509 4.66038L12.0656 2.33162C11.9074 2.24251 11.7302 2.19248 11.5488 2.18572H11.4518C11.2721 2.19291 11.096 2.24178 10.9386 2.33162L6.7497 4.66038C3.17105 4.82138 1.39286 0 1.39286 0C0.602952 3.38028 1.23186 5.63787 2.2877 7.14294L1.60273 7.52459C1.25486 7.71147 1.0378 8.07516 1.0378 8.47191L1.05648 22.4538C1.05648 22.6485 1.16142 22.8282 1.34111 22.9252C1.51361 23.0266 1.72636 23.0266 1.89886 22.9252L7.44689 19.8555C7.61663 19.7619 7.75841 19.6248 7.85768 19.4583C7.95696 19.2919 8.01016 19.102 8.01183 18.9082V12.3754C8.01183 11.9859 8.2253 11.6229 8.57676 11.4317L10.9386 10.1178C11.1111 10.0208 11.3051 9.96834 11.5035 9.96834C11.6947 9.96834 11.8931 10.0172 12.0649 10.1178L14.4267 11.4317C14.7745 11.6229 14.988 11.9859 14.988 12.3754V18.9082C14.988 19.2977 15.2051 19.6528 15.553 19.8555L21.101 22.9252C21.1868 22.975 21.2842 23.0013 21.3835 23.0013C21.4827 23.0013 21.5801 22.975 21.6659 22.9252C21.7501 22.8788 21.8203 22.8104 21.869 22.7275C21.9177 22.6445 21.9431 22.55 21.9426 22.4538L21.9613 8.47191C21.9613 8.07516 21.7443 7.71219 21.3964 7.52459H21.3978Z" fill="white"/>
</g>
<defs>
<clipPath id="clip0">
<rect width="23" height="23" fill="white"/>
</clipPath>
</defs>
</svg>
