<svg width="34" height="30" viewBox="0 0 34 30" fill="none" xmlns="http://www.w3.org/2000/svg">
<path d="M16.6834 17.8185C18.3264 17.8185 19.6584 16.4866 19.6584 14.8435C19.6584 13.2005 18.3264 11.8685 16.6834 11.8685C15.0403 11.8685 13.7084 13.2005 13.7084 14.8435C13.7084 16.4866 15.0403 17.8185 16.6834 17.8185Z" fill="white"/>
<path d="M8.35333 20.7586L7.695 20.5902C2.805 19.3552 0 17.2552 0 14.8369C0 12.4169 2.80667 10.3186 7.695 9.08356L8.35333 8.91689L8.53833 9.56855C9.03257 11.2747 9.6658 12.9375 10.4317 14.5402L10.5733 14.8369L10.4317 15.1336C9.665 16.7386 9.03 18.4019 8.53833 20.1086L8.35333 20.7586ZM7.39167 10.6002C3.67667 11.6469 1.395 13.2436 1.395 14.8369C1.395 16.4269 3.675 18.0252 7.39167 19.0702C7.84667 17.6236 8.39667 16.2086 9.03333 14.8369C8.39205 13.4629 7.8436 12.0475 7.39167 10.6002ZM25.0117 20.7586L24.8283 20.1052C24.3328 18.3987 23.699 16.7354 22.9333 15.1319L22.7917 14.8369L22.9333 14.5386C23.7 12.9369 24.3317 11.2719 24.8283 9.56522L25.0117 8.91522L25.67 9.08189C30.5617 10.3169 33.365 12.4152 33.365 14.8369C33.365 17.2569 30.56 19.3552 25.67 20.5902L25.0117 20.7586ZM24.3283 14.8369C24.995 16.2802 25.55 17.7002 25.9733 19.0702C29.69 18.0252 31.9717 16.4269 31.9717 14.8369C31.9717 13.2436 29.6917 11.6486 25.9733 10.6002C25.5188 12.0471 24.9693 13.4624 24.3283 14.8369Z" fill="white"/>
<path d="M7.38164 10.5936L7.19831 9.94355C5.82164 5.09689 6.2383 1.62522 8.3433 0.415219C10.4016 -0.776448 13.7133 0.631886 17.1816 4.19022L17.655 4.67689L17.1816 5.16189C15.9498 6.44303 14.8238 7.822 13.815 9.28522L13.6266 9.55522L13.3 9.58189C11.5259 9.72122 9.76623 10.0049 8.03831 10.4302L7.38164 10.5936ZM10.0183 1.37855C9.64497 1.37855 9.31497 1.46022 9.03664 1.62022C7.65664 2.41522 7.4133 5.18355 8.36331 8.92022C9.84831 8.59189 11.3466 8.35689 12.8566 8.22522C13.7308 6.98531 14.6845 5.80338 15.7116 4.68689C13.54 2.57522 11.49 1.37855 10.0183 1.37855ZM23.3466 29.6852C21.3666 29.6852 18.8233 28.1919 16.1833 25.4819L15.7116 24.9969L16.1833 24.5136C17.4154 23.2303 18.5418 21.8498 19.5516 20.3852L19.7383 20.1186L20.0616 20.0869C21.8363 19.95 23.5967 19.6674 25.325 19.2419L25.9833 19.0752L26.1683 19.7269C27.5383 24.5702 27.1233 28.0469 25.0216 29.2569C24.5114 29.5461 23.9331 29.694 23.3466 29.6852ZM17.655 24.9852C19.825 27.0969 21.8766 28.2952 23.3466 28.2952C23.7216 28.2952 24.0516 28.2119 24.3283 28.0536C25.71 27.2569 25.955 24.4836 25.0016 20.7469C23.5183 21.0769 22.0183 21.3136 20.505 21.4452C19.6345 22.6871 18.6824 23.8697 17.655 24.9852Z" fill="white"/>
<path d="M25.9833 10.5936L25.325 10.4286C23.5968 10.002 21.8364 9.71823 20.0617 9.58024L19.7383 9.5519L19.5517 9.2819C18.5432 7.81788 17.4167 6.43883 16.1833 5.15857L15.7117 4.67357L16.1833 4.19024C19.65 0.633572 22.96 -0.774761 25.0217 0.415239C27.125 1.62691 27.5433 5.09857 26.1683 9.94357L25.9833 10.5936ZM20.505 8.22524C22.095 8.36691 23.6017 8.60524 25.0017 8.92024C25.9533 5.18357 25.71 2.41524 24.3283 1.61857C22.955 0.823572 20.37 2.04024 17.655 4.6869C18.6817 5.80357 19.635 6.98357 20.505 8.22524ZM10.0183 29.6852C9.43187 29.6936 8.85376 29.5458 8.34332 29.2569C6.23832 28.0469 5.82165 24.5719 7.19665 19.7269L7.37665 19.0752L8.03499 19.2419C9.64165 19.6469 11.4117 19.9319 13.2983 20.0869L13.6217 20.1186L13.81 20.3852C14.8167 21.8486 15.9433 23.2302 17.1767 24.5136L17.65 24.9969L17.1767 25.4819C14.5383 28.1936 11.995 29.6852 10.0183 29.6852ZM8.36332 20.7486C7.41332 24.4852 7.65665 27.2586 9.03665 28.0552C10.4117 28.8386 12.9883 27.6302 15.7117 24.9852C14.6849 23.8684 13.7313 22.6865 12.8567 21.4469C11.3451 21.3132 9.8441 21.0799 8.36332 20.7486Z" fill="white"/>
<path d="M16.6833 21.6235C15.5383 21.6235 14.3633 21.5752 13.1833 21.4769L12.8567 21.4485L12.6683 21.1785C12.0029 20.2217 11.3768 19.2381 10.7917 18.2302C10.2108 17.2196 9.67092 16.186 9.17333 15.1319L9.03333 14.8369L9.17333 14.5385C9.67166 13.4852 10.21 12.4519 10.7917 11.4419C11.37 10.4485 12.0017 9.4552 12.6683 8.49187L12.8567 8.2252L13.1833 8.1952C15.5115 8.0002 17.8518 8.0002 20.18 8.1952L20.5033 8.22687L20.6917 8.49353C22.0246 10.4081 23.1954 12.4307 24.1917 14.5402L24.33 14.8385L24.1917 15.1335C23.1981 17.2445 22.0273 19.2673 20.6917 21.1802L20.5033 21.4502L20.18 21.4785C19.0033 21.5735 17.8267 21.6235 16.6833 21.6235ZM13.6267 20.1169C15.685 20.2719 17.6817 20.2719 19.7383 20.1169C20.8865 18.4356 21.9071 16.6706 22.7917 14.8369C21.9102 13.0015 20.8895 11.2363 19.7383 9.55687C17.7041 9.4002 15.6609 9.4002 13.6267 9.55687C12.4746 11.2357 11.4537 13.0009 10.5733 14.8369C11.4598 16.6696 12.4803 18.4344 13.6267 20.1169Z" fill="white"/>
</svg>
