<svg width="93" height="30" viewBox="0 0 93 30" fill="none" xmlns="http://www.w3.org/2000/svg">
<path d="M16.6835 17.8185C18.3265 17.8185 19.6585 16.4866 19.6585 14.8435C19.6585 13.2005 18.3265 11.8685 16.6835 11.8685C15.0404 11.8685 13.7085 13.2005 13.7085 14.8435C13.7085 16.4866 15.0404 17.8185 16.6835 17.8185Z" fill="white"/>
<path d="M8.35333 20.7586L7.695 20.5902C2.805 19.3552 0 17.2552 0 14.8369C0 12.4169 2.80667 10.3186 7.695 9.08356L8.35333 8.91689L8.53833 9.56855C9.03257 11.2747 9.6658 12.9375 10.4317 14.5402L10.5733 14.8369L10.4317 15.1336C9.665 16.7386 9.03 18.4019 8.53833 20.1086L8.35333 20.7586ZM7.39167 10.6002C3.67667 11.6469 1.395 13.2436 1.395 14.8369C1.395 16.4269 3.675 18.0252 7.39167 19.0702C7.84667 17.6236 8.39667 16.2086 9.03333 14.8369C8.39205 13.4629 7.8436 12.0475 7.39167 10.6002ZM25.0117 20.7586L24.8283 20.1052C24.3328 18.3987 23.699 16.7354 22.9333 15.1319L22.7917 14.8369L22.9333 14.5386C23.7 12.9369 24.3317 11.2719 24.8283 9.56522L25.0117 8.91522L25.67 9.08189C30.5617 10.3169 33.365 12.4152 33.365 14.8369C33.365 17.2569 30.56 19.3552 25.67 20.5902L25.0117 20.7586ZM24.3283 14.8369C24.995 16.2802 25.55 17.7002 25.9733 19.0702C29.69 18.0252 31.9717 16.4269 31.9717 14.8369C31.9717 13.2436 29.6917 11.6486 25.9733 10.6002C25.5188 12.0471 24.9693 13.4624 24.3283 14.8369Z" fill="white"/>
<path d="M7.38164 10.5936L7.19831 9.94355C5.82164 5.09689 6.2383 1.62522 8.3433 0.415219C10.4016 -0.776448 13.7133 0.631886 17.1816 4.19022L17.655 4.67689L17.1816 5.16189C15.9498 6.44303 14.8238 7.822 13.815 9.28522L13.6266 9.55522L13.3 9.58189C11.5259 9.72122 9.76623 10.0049 8.03831 10.4302L7.38164 10.5936ZM10.0183 1.37855C9.64497 1.37855 9.31497 1.46022 9.03664 1.62022C7.65664 2.41522 7.4133 5.18355 8.36331 8.92022C9.84831 8.59189 11.3466 8.35689 12.8566 8.22522C13.7308 6.98531 14.6845 5.80338 15.7116 4.68689C13.54 2.57522 11.49 1.37855 10.0183 1.37855ZM23.3466 29.6852C21.3666 29.6852 18.8233 28.1919 16.1833 25.4819L15.7116 24.9969L16.1833 24.5136C17.4154 23.2303 18.5418 21.8498 19.5516 20.3852L19.7383 20.1186L20.0616 20.0869C21.8363 19.95 23.5967 19.6674 25.325 19.2419L25.9833 19.0752L26.1683 19.7269C27.5383 24.5702 27.1233 28.0469 25.0216 29.2569C24.5114 29.5461 23.9331 29.694 23.3466 29.6852ZM17.655 24.9852C19.825 27.0969 21.8766 28.2952 23.3466 28.2952C23.7216 28.2952 24.0516 28.2119 24.3283 28.0536C25.71 27.2569 25.955 24.4836 25.0016 20.7469C23.5183 21.0769 22.0183 21.3136 20.505 21.4452C19.6345 22.6871 18.6824 23.8697 17.655 24.9852Z" fill="white"/>
<path d="M25.9834 10.5936L25.3251 10.4286C23.5969 10.002 21.8365 9.71823 20.0618 9.58024L19.7384 9.5519L19.5518 9.2819C18.5434 7.81788 17.4168 6.43883 16.1834 5.15857L15.7118 4.67357L16.1834 4.19024C19.6501 0.633572 22.9601 -0.774761 25.0218 0.415239C27.1251 1.62691 27.5434 5.09857 26.1684 9.94357L25.9834 10.5936ZM20.5051 8.22524C22.0951 8.36691 23.6018 8.60524 25.0018 8.92024C25.9534 5.18357 25.7101 2.41524 24.3284 1.61857C22.9551 0.823572 20.3701 2.04024 17.6551 4.6869C18.6818 5.80357 19.6351 6.98357 20.5051 8.22524ZM10.0184 29.6852C9.43199 29.6936 8.85388 29.5458 8.34344 29.2569C6.23844 28.0469 5.82178 24.5719 7.19678 19.7269L7.37678 19.0752L8.03511 19.2419C9.64178 19.6469 11.4118 19.9319 13.2984 20.0869L13.6218 20.1186L13.8101 20.3852C14.8168 21.8486 15.9434 23.2302 17.1768 24.5136L17.6501 24.9969L17.1768 25.4819C14.5384 28.1936 11.9951 29.6852 10.0184 29.6852ZM8.36344 20.7486C7.41344 24.4852 7.65678 27.2586 9.03678 28.0552C10.4118 28.8386 12.9884 27.6302 15.7118 24.9852C14.685 23.8684 13.7314 22.6865 12.8568 21.4469C11.3453 21.3132 9.84423 21.0799 8.36344 20.7486Z" fill="white"/>
<path d="M16.6832 21.6235C15.5382 21.6235 14.3632 21.5752 13.1832 21.4769L12.8565 21.4485L12.6682 21.1785C12.0028 20.2217 11.3767 19.2381 10.7915 18.2302C10.2107 17.2196 9.6708 16.186 9.1732 15.1319L9.0332 14.8369L9.1732 14.5385C9.67154 13.4852 10.2099 12.4519 10.7915 11.4419C11.3699 10.4485 12.0015 9.4552 12.6682 8.49187L12.8565 8.2252L13.1832 8.1952C15.5113 8.0002 17.8517 8.0002 20.1799 8.1952L20.5032 8.22687L20.6915 8.49353C22.0245 10.4081 23.1953 12.4307 24.1915 14.5402L24.3299 14.8385L24.1915 15.1335C23.198 17.2445 22.0272 19.2673 20.6915 21.1802L20.5032 21.4502L20.1799 21.4785C19.0032 21.5735 17.8265 21.6235 16.6832 21.6235ZM13.6265 20.1169C15.6849 20.2719 17.6815 20.2719 19.7382 20.1169C20.8863 18.4356 21.907 16.6706 22.7915 14.8369C21.9101 13.0015 20.8893 11.2363 19.7382 9.55687C17.704 9.4002 15.6607 9.4002 13.6265 9.55687C12.4744 11.2357 11.4536 13.0009 10.5732 14.8369C11.4597 16.6696 12.4802 18.4344 13.6265 20.1169Z" fill="white"/>
<path d="M42.1489 14.686H39.644V19H38.2305V8.33594H41.7607C42.9619 8.33594 43.8848 8.60938 44.5293 9.15625C45.1787 9.70312 45.5034 10.499 45.5034 11.5439C45.5034 12.208 45.3228 12.7866 44.9614 13.2798C44.605 13.7729 44.1069 14.1416 43.4673 14.3857L45.9722 18.9121V19H44.4634L42.1489 14.686ZM39.644 13.5361H41.8047C42.5029 13.5361 43.0571 13.3555 43.4673 12.9941C43.8823 12.6328 44.0898 12.1494 44.0898 11.5439C44.0898 10.8848 43.8921 10.3794 43.4966 10.0278C43.106 9.67627 42.5396 9.49805 41.7974 9.49316H39.644V13.5361ZM50.5571 19.1465C49.4829 19.1465 48.6089 18.7949 47.9351 18.0918C47.2612 17.3838 46.9243 16.439 46.9243 15.2573V15.0083C46.9243 14.2222 47.0732 13.5215 47.3711 12.9062C47.6738 12.2861 48.0938 11.8027 48.6309 11.4561C49.1729 11.1045 49.7588 10.9287 50.3887 10.9287C51.4189 10.9287 52.2197 11.2681 52.791 11.9468C53.3623 12.6255 53.6479 13.5972 53.6479 14.8618V15.4258H48.2793C48.2988 16.207 48.5259 16.8394 48.9604 17.3228C49.3999 17.8013 49.9565 18.0405 50.6304 18.0405C51.1089 18.0405 51.5142 17.9429 51.8462 17.7476C52.1782 17.5522 52.4688 17.2935 52.7178 16.9712L53.5454 17.6157C52.8813 18.6362 51.8853 19.1465 50.5571 19.1465ZM50.3887 12.042C49.8418 12.042 49.3828 12.2422 49.0117 12.6426C48.6406 13.0381 48.4111 13.5947 48.3232 14.3125H52.293V14.21C52.2539 13.5215 52.0684 12.9893 51.7363 12.6133C51.4043 12.2324 50.9551 12.042 50.3887 12.042ZM60.1152 19C60.0371 18.8438 59.9736 18.5654 59.9248 18.165C59.2949 18.8193 58.543 19.1465 57.6689 19.1465C56.8877 19.1465 56.2456 18.9268 55.7427 18.4873C55.2446 18.043 54.9956 17.4814 54.9956 16.8027C54.9956 15.9775 55.3081 15.3379 55.9331 14.8838C56.563 14.4248 57.4468 14.1953 58.5845 14.1953H59.9028V13.5728C59.9028 13.0991 59.7612 12.7231 59.478 12.4448C59.1948 12.1616 58.7773 12.02 58.2256 12.02C57.7422 12.02 57.3369 12.1421 57.0098 12.3862C56.6826 12.6304 56.519 12.9258 56.519 13.2725H55.1567C55.1567 12.877 55.2959 12.4961 55.5742 12.1299C55.8574 11.7588 56.2383 11.4658 56.7168 11.251C57.2002 11.0361 57.73 10.9287 58.3062 10.9287C59.2192 10.9287 59.9346 11.1582 60.4521 11.6172C60.9697 12.0713 61.2383 12.6987 61.2578 13.4995V17.147C61.2578 17.8745 61.3506 18.4531 61.5361 18.8828V19H60.1152ZM57.8667 17.9673C58.2915 17.9673 58.6943 17.8574 59.0752 17.6377C59.4561 17.418 59.7319 17.1323 59.9028 16.7808V15.1548H58.8408C57.1807 15.1548 56.3506 15.6406 56.3506 16.6123C56.3506 17.0371 56.4922 17.3691 56.7754 17.6084C57.0586 17.8477 57.4224 17.9673 57.8667 17.9673ZM66.5605 18.0405C67.0439 18.0405 67.4663 17.894 67.8276 17.6011C68.189 17.3081 68.3892 16.9419 68.4282 16.5024H69.71C69.6855 16.9565 69.5293 17.3887 69.2412 17.7988C68.9531 18.209 68.5674 18.5361 68.084 18.7803C67.6055 19.0244 67.0977 19.1465 66.5605 19.1465C65.4814 19.1465 64.6221 18.7876 63.9824 18.0698C63.3477 17.3472 63.0303 16.3608 63.0303 15.1108V14.8838C63.0303 14.1123 63.1719 13.4263 63.4551 12.8257C63.7383 12.2251 64.1436 11.7588 64.6709 11.4268C65.2031 11.0947 65.8306 10.9287 66.5532 10.9287C67.4419 10.9287 68.1792 11.1948 68.7651 11.7271C69.356 12.2593 69.6709 12.9502 69.71 13.7998H68.4282C68.3892 13.2871 68.1938 12.8672 67.8423 12.54C67.4956 12.208 67.0659 12.042 66.5532 12.042C65.8647 12.042 65.3301 12.291 64.9492 12.7891C64.5732 13.2822 64.3853 13.9976 64.3853 14.9351V15.1914C64.3853 16.1045 64.5732 16.8076 64.9492 17.3008C65.3252 17.7939 65.8623 18.0405 66.5605 18.0405ZM73.0718 9.15625V11.0752H74.5513V12.1226H73.0718V17.0371C73.0718 17.3545 73.1377 17.5938 73.2695 17.7549C73.4014 17.9111 73.626 17.9893 73.9434 17.9893C74.0996 17.9893 74.3145 17.96 74.5879 17.9014V19C74.2314 19.0977 73.8848 19.1465 73.5479 19.1465C72.9424 19.1465 72.4858 18.9634 72.1782 18.5972C71.8706 18.231 71.7168 17.7109 71.7168 17.0371V12.1226H70.2739V11.0752H71.7168V9.15625H73.0718ZM80.8208 8.33594H82.2344V15.8872C82.2344 16.9077 81.9268 17.7061 81.3115 18.2822C80.7012 18.8584 79.8857 19.1465 78.8652 19.1465C77.8057 19.1465 76.9805 18.8755 76.3896 18.3335C75.7988 17.7915 75.5034 17.0322 75.5034 16.0557H76.9097C76.9097 16.666 77.0757 17.1421 77.4077 17.4839C77.7446 17.8257 78.2305 17.9966 78.8652 17.9966C79.4463 17.9966 79.915 17.8135 80.2715 17.4473C80.6328 17.0811 80.8159 16.5684 80.8208 15.9092V8.33594ZM87.7715 14.2466C86.5654 13.8999 85.6865 13.4751 85.1348 12.9722C84.5879 12.4644 84.3145 11.8394 84.3145 11.0972C84.3145 10.2573 84.6489 9.56396 85.3179 9.01709C85.9917 8.46533 86.8657 8.18945 87.9399 8.18945C88.6724 8.18945 89.3242 8.33105 89.8955 8.61426C90.4717 8.89746 90.916 9.28809 91.2285 9.78613C91.5459 10.2842 91.7046 10.8286 91.7046 11.4194H90.291C90.291 10.7749 90.0859 10.2695 89.6758 9.90332C89.2656 9.53223 88.687 9.34668 87.9399 9.34668C87.2466 9.34668 86.7046 9.50049 86.314 9.80811C85.9282 10.1108 85.7354 10.5332 85.7354 11.0752C85.7354 11.5098 85.9185 11.8784 86.2847 12.1812C86.6558 12.479 87.2832 12.7524 88.167 13.0015C89.0557 13.2505 89.749 13.5264 90.2471 13.8291C90.75 14.127 91.1211 14.4761 91.3604 14.8765C91.6045 15.2769 91.7266 15.748 91.7266 16.29C91.7266 17.1543 91.3896 17.8477 90.7158 18.3701C90.042 18.8877 89.1411 19.1465 88.0132 19.1465C87.2808 19.1465 86.5972 19.0073 85.9624 18.729C85.3276 18.4458 84.8369 18.0601 84.4902 17.5718C84.1484 17.0835 83.9775 16.5293 83.9775 15.9092H85.3911C85.3911 16.5537 85.6279 17.064 86.1016 17.4399C86.5801 17.811 87.2173 17.9966 88.0132 17.9966C88.7554 17.9966 89.3242 17.8452 89.7197 17.5425C90.1152 17.2397 90.313 16.8271 90.313 16.3047C90.313 15.7822 90.1299 15.3794 89.7637 15.0962C89.3975 14.8081 88.7334 14.5249 87.7715 14.2466Z" fill="white"/>
</svg>
