<svg width="111" height="14" viewBox="0 0 111 14" fill="none" xmlns="http://www.w3.org/2000/svg">
<path d="M20.9431 0L20.8462 0.522527C20.6964 1.51279 20.7506 1.7961 21.1614 2.16361L21.5579 2.50305L21.1472 4.39805C20.9017 5.52864 20.6008 6.47613 20.4096 6.78751C20.2456 7.05613 20.0544 7.4517 20.0131 7.66418C19.9446 7.9181 19.7121 8.17335 19.3569 8.3992C19.043 8.58362 18.4269 9.07808 17.9903 9.47499C17.6416 9.79973 17.4013 9.99885 17.2709 10.0844L16.8446 10.4332C16.735 10.6014 16.6526 10.7869 16.6005 10.9824C16.5708 11.1254 16.5876 11.2203 16.6315 11.2898C16.6741 11.3566 16.7477 11.4034 16.8485 11.4328C16.9678 11.4617 17.0905 11.4721 17.2127 11.4635C17.4893 11.444 17.7629 11.3938 18.0291 11.3139C18.1195 11.2885 18.1905 11.2644 18.2525 11.243C18.3481 11.1214 18.569 10.8916 18.9604 10.492C19.9989 9.43223 20.3954 8.85223 19.986 9.00859C19.8348 9.06472 19.9033 8.92306 20.1629 8.63975C20.7106 8.08782 21.0245 7.25391 21.6806 4.6386C22.1999 2.57388 22.1999 2.54448 22.5822 2.54448C22.7617 2.54448 23.2694 2.57656 23.2694 2.57656V0H22.1043H20.9431ZM25.9018 4.22967C25.8191 4.22967 25.6822 4.35796 25.6008 4.49962C25.451 4.75353 25.628 4.90855 27.8832 6.36521C29.2227 7.24322 30.3025 7.9916 30.2754 8.04906C30.2482 8.09049 29.1542 8.82684 27.8432 9.67545C25.4639 11.2016 25.451 11.2163 25.6693 11.5277C25.9431 11.8952 25.6693 12.0221 28.7577 10.0283L31 8.54353V7.42631L28.498 5.82799C27.1457 4.95132 25.9702 4.24437 25.9018 4.22967ZM5.12533 4.38602C5.05687 4.38602 3.88146 5.10767 2.52908 5.96964L0 7.56796V8.68518L2.51487 10.3116C3.90987 11.2016 5.08529 11.938 5.13954 11.938C5.19379 11.938 5.30358 11.8097 5.41337 11.6546C5.57742 11.386 5.43921 11.2724 3.12971 9.75964C0.93 8.33104 0.6975 8.13326 0.917083 7.97824C1.054 7.87934 2.0925 7.21382 3.21367 6.49351C5.76987 4.86713 5.63296 4.97938 5.42758 4.63994C5.34621 4.49962 5.208 4.37266 5.12663 4.38602H5.12533ZM16.3422 4.41676C15.965 4.41409 15.1538 5.00878 12.7255 7.06014C12.6209 7.31806 12.6118 7.4958 12.6596 7.61073C12.6906 7.68958 12.7475 7.74437 12.8263 7.78446C12.9038 7.82455 13.0045 7.84861 13.1156 7.85796C13.3365 7.87801 13.5974 7.84192 13.8079 7.79916L13.95 7.76575C13.9986 7.69827 14.0625 7.64413 14.136 7.60806C14.2858 7.52253 14.9149 6.92917 15.5439 6.29305C16.6509 5.13307 16.9105 4.6092 16.4597 4.43948C16.4227 4.42426 16.3833 4.41654 16.3435 4.41676H16.3422ZM19.1787 5.2226C18.8467 5.23196 18.2487 5.6302 17.2244 6.47614C16.7103 6.90779 16.3848 7.14032 16.2104 7.18843L15.5336 7.7417C15.2791 8.22279 15.2417 8.52081 15.3088 8.68518C15.3256 8.72573 15.3501 8.76243 15.3806 8.79317C15.4112 8.82391 15.4474 8.84807 15.4871 8.86426C15.5858 8.90458 15.691 8.92499 15.7971 8.9244C16.0506 8.9216 16.3026 8.88339 16.5462 8.8108C16.6732 8.77555 16.7986 8.73453 16.9221 8.68786L16.9596 8.67182L17.028 8.6344C17.1572 8.46201 17.4543 8.13727 17.8263 7.76308C19.0017 6.58973 19.6023 5.75582 19.4796 5.44444C19.4241 5.29343 19.3285 5.21726 19.1787 5.2226ZM16.0477 6.6659C15.9521 6.67659 15.7377 6.84765 15.3515 7.19778C14.7935 7.70828 14.1851 8.00229 13.9745 7.87133C13.9256 7.88276 13.8765 7.89345 13.8273 7.9034C13.6129 7.9475 13.3455 7.98358 13.1065 7.96353C12.994 7.95648 12.8836 7.92794 12.781 7.87934C12.6843 7.83359 12.6071 7.75277 12.564 7.65216C12.5162 7.53188 12.5162 7.38221 12.5705 7.1911L11.7309 7.90473L9.83087 9.53112V12.1678L16.0567 7.09355C16.0555 7.03799 16.0625 6.98256 16.0774 6.92917C16.1252 6.75009 16.1226 6.65922 16.0477 6.66724V6.6659ZM18.7266 7.51985C18.6323 7.51985 18.4747 7.6575 18.2228 7.93413C17.8805 8.31233 17.3419 8.6785 17.0565 8.75334L17.0125 8.7774C16.9657 8.79742 16.9183 8.81613 16.8705 8.83352C16.793 8.86025 16.6922 8.89232 16.576 8.9244C16.3435 8.98988 16.0541 9.05002 15.7958 9.04334C15.674 9.04318 15.5534 9.01867 15.4406 8.97117C15.3343 8.92583 15.2491 8.83961 15.2029 8.73062C15.128 8.54486 15.1577 8.28427 15.3217 7.91409L9.82958 12.3897V14H12.2424L17.36 9.84116C17.493 9.68881 17.6932 9.48034 17.9632 9.21974C18.6865 8.52615 18.8506 8.28694 18.8506 7.9328C18.8506 7.6575 18.8209 7.51852 18.7266 7.51852V7.51985ZM19.9446 10.1258L19.5068 10.5775C19.2613 10.8181 18.8235 11.1147 18.5238 11.2417L18.4644 11.2684L18.4605 11.2751L18.4476 11.2885C18.436 11.2978 18.4308 11.2992 18.4217 11.3032C18.3021 11.35 18.1806 11.3915 18.0575 11.4275C17.7838 11.5099 17.5023 11.5614 17.2179 11.5811C17.0834 11.5901 16.9485 11.5779 16.8175 11.5451C16.7039 11.5192 16.6035 11.4506 16.5359 11.3526C16.4739 11.2537 16.4558 11.1214 16.4907 10.9584C16.5184 10.8423 16.5596 10.7301 16.6134 10.6243L12.484 14H17.9761L18.6323 13.2222C19.5339 12.1344 19.9446 11.3566 19.9446 10.6911V10.1258Z" fill="white"/>
<path d="M37.3838 9.73877C37.3838 9.51904 37.3003 9.34912 37.1333 9.229C36.9692 9.10596 36.6807 9.00049 36.2676 8.9126C35.8574 8.82471 35.5308 8.71924 35.2876 8.59619C35.0474 8.47314 34.8687 8.32666 34.7515 8.15674C34.6372 7.98682 34.5801 7.78467 34.5801 7.55029C34.5801 7.16064 34.7441 6.83105 35.0723 6.56152C35.4033 6.29199 35.8252 6.15723 36.3379 6.15723C36.877 6.15723 37.3135 6.29639 37.6475 6.57471C37.9844 6.85303 38.1528 7.20898 38.1528 7.64258H37.3354C37.3354 7.41992 37.2402 7.22803 37.0498 7.06689C36.8623 6.90576 36.625 6.8252 36.3379 6.8252C36.042 6.8252 35.8105 6.88965 35.6436 7.01855C35.4766 7.14746 35.3931 7.31592 35.3931 7.52393C35.3931 7.72021 35.4707 7.86816 35.626 7.96777C35.7812 8.06738 36.061 8.1626 36.4653 8.25342C36.8726 8.34424 37.2021 8.45264 37.4541 8.57861C37.7061 8.70459 37.8921 8.85693 38.0122 9.03564C38.1353 9.21143 38.1968 9.42676 38.1968 9.68164C38.1968 10.1064 38.0269 10.4478 37.687 10.7056C37.3472 10.9604 36.9062 11.0879 36.3643 11.0879C35.9834 11.0879 35.6465 11.0205 35.3535 10.8857C35.0605 10.751 34.8306 10.5635 34.6636 10.3232C34.4995 10.0801 34.4175 9.81787 34.4175 9.53662H35.2305C35.2451 9.80908 35.3535 10.0259 35.5557 10.187C35.7607 10.3452 36.0303 10.4243 36.3643 10.4243C36.6719 10.4243 36.918 10.3628 37.1025 10.2397C37.29 10.1138 37.3838 9.94678 37.3838 9.73877ZM40.3589 5.09375V6.24512H41.2466V6.87354H40.3589V9.82227C40.3589 10.0127 40.3984 10.1562 40.4775 10.2529C40.5566 10.3467 40.6914 10.3936 40.8818 10.3936C40.9756 10.3936 41.1045 10.376 41.2686 10.3408V11C41.0547 11.0586 40.8467 11.0879 40.6445 11.0879C40.2812 11.0879 40.0073 10.978 39.8228 10.7583C39.6382 10.5386 39.5459 10.2266 39.5459 9.82227V6.87354H38.6802V6.24512H39.5459V5.09375H40.3589ZM43.7559 9.80908L44.8633 6.24512H45.7334L43.8218 11.7339C43.5259 12.5249 43.0557 12.9204 42.4111 12.9204L42.2573 12.9072L41.9541 12.8501V12.1909L42.1738 12.2085C42.4492 12.2085 42.6631 12.1528 42.8154 12.0415C42.9707 11.9302 43.0981 11.7266 43.1978 11.4307L43.3779 10.9473L41.6816 6.24512H42.5693L43.7559 9.80908ZM47.3462 11H46.5332V4.25H47.3462V11ZM50.6245 11.0879C49.98 11.0879 49.4556 10.877 49.0513 10.4551C48.647 10.0303 48.4448 9.46338 48.4448 8.75439V8.60498C48.4448 8.1333 48.5342 7.71289 48.7129 7.34375C48.8945 6.97168 49.1465 6.68164 49.4688 6.47363C49.7939 6.2627 50.1455 6.15723 50.5234 6.15723C51.1416 6.15723 51.6221 6.36084 51.9648 6.76807C52.3076 7.17529 52.479 7.7583 52.479 8.51709V8.85547H49.2578C49.2695 9.32422 49.4058 9.70361 49.6665 9.99365C49.9302 10.2808 50.2642 10.4243 50.6685 10.4243C50.9556 10.4243 51.1987 10.3657 51.3979 10.2485C51.5972 10.1313 51.7715 9.97607 51.9209 9.78271L52.4175 10.1694C52.019 10.7817 51.4214 11.0879 50.6245 11.0879ZM50.5234 6.8252C50.1953 6.8252 49.9199 6.94531 49.6973 7.18555C49.4746 7.42285 49.3369 7.75684 49.2842 8.1875H51.666V8.12598C51.6426 7.71289 51.5312 7.39355 51.332 7.16797C51.1328 6.93945 50.8633 6.8252 50.5234 6.8252ZM53.2261 8.58301C53.2261 7.85352 53.3989 7.26758 53.7446 6.8252C54.0903 6.37988 54.543 6.15723 55.1025 6.15723C55.6592 6.15723 56.1001 6.34766 56.4253 6.72852V4.25H57.2383V11H56.4912L56.4517 10.4902C56.1265 10.8887 55.6738 11.0879 55.0938 11.0879C54.543 11.0879 54.0933 10.8623 53.7446 10.4111C53.3989 9.95996 53.2261 9.37109 53.2261 8.64453V8.58301ZM54.0391 8.67529C54.0391 9.21436 54.1504 9.63623 54.373 9.94092C54.5957 10.2456 54.9033 10.3979 55.2959 10.3979C55.8115 10.3979 56.188 10.1665 56.4253 9.70361V7.51953C56.1821 7.07129 55.8086 6.84717 55.3047 6.84717C54.9062 6.84717 54.5957 7.00098 54.373 7.30859C54.1504 7.61621 54.0391 8.07178 54.0391 8.67529ZM62.6436 10.4243C62.9336 10.4243 63.187 10.3364 63.4038 10.1606C63.6206 9.98486 63.7407 9.76514 63.7642 9.50146H64.5332C64.5186 9.77393 64.4248 10.0332 64.252 10.2793C64.0791 10.5254 63.8477 10.7217 63.5576 10.8682C63.2705 11.0146 62.9658 11.0879 62.6436 11.0879C61.9961 11.0879 61.4805 10.8726 61.0967 10.4419C60.7158 10.0083 60.5254 9.4165 60.5254 8.6665V8.53027C60.5254 8.06738 60.6104 7.65576 60.7803 7.29541C60.9502 6.93506 61.1934 6.65527 61.5098 6.45605C61.8291 6.25684 62.2056 6.15723 62.6392 6.15723C63.1724 6.15723 63.6147 6.31689 63.9663 6.63623C64.3208 6.95557 64.5098 7.37012 64.5332 7.87988H63.7642C63.7407 7.57227 63.6235 7.32031 63.4126 7.12402C63.2046 6.9248 62.9468 6.8252 62.6392 6.8252C62.2261 6.8252 61.9053 6.97461 61.6768 7.27344C61.4512 7.56934 61.3384 7.99854 61.3384 8.56104V8.71484C61.3384 9.2627 61.4512 9.68457 61.6768 9.98047C61.9023 10.2764 62.2246 10.4243 62.6436 10.4243ZM65.2319 8.57861C65.2319 8.11279 65.3228 7.69385 65.5044 7.32178C65.689 6.94971 65.9438 6.6626 66.269 6.46045C66.5972 6.2583 66.9707 6.15723 67.3896 6.15723C68.0371 6.15723 68.5601 6.38135 68.9585 6.82959C69.3599 7.27783 69.5605 7.87402 69.5605 8.61816V8.67529C69.5605 9.13818 69.4712 9.5542 69.2925 9.92334C69.1167 10.2896 68.8633 10.5752 68.5322 10.7803C68.2041 10.9854 67.8262 11.0879 67.3984 11.0879C66.7539 11.0879 66.231 10.8638 65.8296 10.4155C65.4312 9.96729 65.2319 9.37402 65.2319 8.63574V8.57861ZM66.0493 8.67529C66.0493 9.20264 66.1709 9.62598 66.4141 9.94531C66.6602 10.2646 66.9883 10.4243 67.3984 10.4243C67.8115 10.4243 68.1396 10.2632 68.3828 9.94092C68.626 9.61572 68.7476 9.16162 68.7476 8.57861C68.7476 8.05713 68.623 7.63525 68.374 7.31299C68.1279 6.98779 67.7998 6.8252 67.3896 6.8252C66.9883 6.8252 66.6646 6.98486 66.4185 7.3042C66.1724 7.62354 66.0493 8.08057 66.0493 8.67529ZM71.3447 6.24512L71.3667 6.77246C71.7153 6.3623 72.1855 6.15723 72.7773 6.15723C73.4424 6.15723 73.895 6.41211 74.1353 6.92188C74.2935 6.69336 74.4985 6.50879 74.7505 6.36816C75.0054 6.22754 75.3057 6.15723 75.6514 6.15723C76.6943 6.15723 77.2246 6.70947 77.2422 7.81396V11H76.4292V7.8623C76.4292 7.52246 76.3516 7.26904 76.1963 7.10205C76.041 6.93213 75.7803 6.84717 75.4141 6.84717C75.1123 6.84717 74.8618 6.93799 74.6626 7.11963C74.4634 7.29834 74.3477 7.54004 74.3154 7.84473V11H73.498V7.88428C73.498 7.19287 73.1597 6.84717 72.4829 6.84717C71.9497 6.84717 71.585 7.07422 71.3887 7.52832V11H70.5757V6.24512H71.3447ZM82.4893 8.67529C82.4893 9.39893 82.3237 9.98193 81.9927 10.4243C81.6616 10.8667 81.2134 11.0879 80.6479 11.0879C80.0708 11.0879 79.6167 10.9048 79.2856 10.5386V12.8281H78.4727V6.24512H79.2153L79.2549 6.77246C79.5859 6.3623 80.0459 6.15723 80.6348 6.15723C81.2061 6.15723 81.6572 6.37256 81.9883 6.80322C82.3223 7.23389 82.4893 7.83301 82.4893 8.60059V8.67529ZM81.6763 8.58301C81.6763 8.04688 81.562 7.62354 81.3335 7.31299C81.105 7.00244 80.7915 6.84717 80.3931 6.84717C79.9009 6.84717 79.5317 7.06543 79.2856 7.50195V9.77393C79.5288 10.2075 79.9009 10.4243 80.4019 10.4243C80.7915 10.4243 81.1006 10.2705 81.3291 9.96289C81.5605 9.65234 81.6763 9.19238 81.6763 8.58301ZM83.311 8.57861C83.311 8.11279 83.4019 7.69385 83.5835 7.32178C83.7681 6.94971 84.0229 6.6626 84.3481 6.46045C84.6763 6.2583 85.0498 6.15723 85.4688 6.15723C86.1162 6.15723 86.6392 6.38135 87.0376 6.82959C87.439 7.27783 87.6396 7.87402 87.6396 8.61816V8.67529C87.6396 9.13818 87.5503 9.5542 87.3716 9.92334C87.1958 10.2896 86.9424 10.5752 86.6113 10.7803C86.2832 10.9854 85.9053 11.0879 85.4775 11.0879C84.833 11.0879 84.3101 10.8638 83.9087 10.4155C83.5103 9.96729 83.311 9.37402 83.311 8.63574V8.57861ZM84.1284 8.67529C84.1284 9.20264 84.25 9.62598 84.4932 9.94531C84.7393 10.2646 85.0674 10.4243 85.4775 10.4243C85.8906 10.4243 86.2188 10.2632 86.4619 9.94092C86.7051 9.61572 86.8267 9.16162 86.8267 8.57861C86.8267 8.05713 86.7021 7.63525 86.4531 7.31299C86.207 6.98779 85.8789 6.8252 85.4688 6.8252C85.0674 6.8252 84.7437 6.98486 84.4976 7.3042C84.2515 7.62354 84.1284 8.08057 84.1284 8.67529ZM89.4282 6.24512L89.4546 6.84277C89.8179 6.38574 90.2925 6.15723 90.8784 6.15723C91.8833 6.15723 92.3901 6.72412 92.3989 7.85791V11H91.5859V7.85352C91.583 7.51074 91.5039 7.25732 91.3486 7.09326C91.1963 6.9292 90.9575 6.84717 90.6323 6.84717C90.3687 6.84717 90.1372 6.91748 89.938 7.05811C89.7388 7.19873 89.5835 7.3833 89.4722 7.61182V11H88.6592V6.24512H89.4282ZM95.5981 11.0879C94.9536 11.0879 94.4292 10.877 94.0249 10.4551C93.6206 10.0303 93.4185 9.46338 93.4185 8.75439V8.60498C93.4185 8.1333 93.5078 7.71289 93.6865 7.34375C93.8682 6.97168 94.1201 6.68164 94.4424 6.47363C94.7676 6.2627 95.1191 6.15723 95.4971 6.15723C96.1152 6.15723 96.5957 6.36084 96.9385 6.76807C97.2812 7.17529 97.4526 7.7583 97.4526 8.51709V8.85547H94.2314C94.2432 9.32422 94.3794 9.70361 94.6401 9.99365C94.9038 10.2808 95.2378 10.4243 95.6421 10.4243C95.9292 10.4243 96.1724 10.3657 96.3716 10.2485C96.5708 10.1313 96.7451 9.97607 96.8945 9.78271L97.3911 10.1694C96.9927 10.7817 96.395 11.0879 95.5981 11.0879ZM95.4971 6.8252C95.1689 6.8252 94.8936 6.94531 94.6709 7.18555C94.4482 7.42285 94.3105 7.75684 94.2578 8.1875H96.6396V8.12598C96.6162 7.71289 96.5049 7.39355 96.3057 7.16797C96.1064 6.93945 95.8369 6.8252 95.4971 6.8252ZM99.1665 6.24512L99.1929 6.84277C99.5562 6.38574 100.031 6.15723 100.617 6.15723C101.622 6.15723 102.128 6.72412 102.137 7.85791V11H101.324V7.85352C101.321 7.51074 101.242 7.25732 101.087 7.09326C100.935 6.9292 100.696 6.84717 100.371 6.84717C100.107 6.84717 99.8755 6.91748 99.6763 7.05811C99.4771 7.19873 99.3218 7.3833 99.2104 7.61182V11H98.3975V6.24512H99.1665ZM104.466 5.09375V6.24512H105.354V6.87354H104.466V9.82227C104.466 10.0127 104.506 10.1562 104.585 10.2529C104.664 10.3467 104.799 10.3936 104.989 10.3936C105.083 10.3936 105.212 10.376 105.376 10.3408V11C105.162 11.0586 104.954 11.0879 104.752 11.0879C104.389 11.0879 104.115 10.978 103.93 10.7583C103.746 10.5386 103.653 10.2266 103.653 9.82227V6.87354H102.788V6.24512H103.653V5.09375H104.466ZM109.076 9.73877C109.076 9.51904 108.993 9.34912 108.826 9.229C108.662 9.10596 108.373 9.00049 107.96 8.9126C107.55 8.82471 107.223 8.71924 106.98 8.59619C106.74 8.47314 106.561 8.32666 106.444 8.15674C106.33 7.98682 106.272 7.78467 106.272 7.55029C106.272 7.16064 106.437 6.83105 106.765 6.56152C107.096 6.29199 107.518 6.15723 108.03 6.15723C108.569 6.15723 109.006 6.29639 109.34 6.57471C109.677 6.85303 109.845 7.20898 109.845 7.64258H109.028C109.028 7.41992 108.933 7.22803 108.742 7.06689C108.555 6.90576 108.317 6.8252 108.03 6.8252C107.734 6.8252 107.503 6.88965 107.336 7.01855C107.169 7.14746 107.085 7.31592 107.085 7.52393C107.085 7.72021 107.163 7.86816 107.318 7.96777C107.474 8.06738 107.753 8.1626 108.158 8.25342C108.565 8.34424 108.895 8.45264 109.146 8.57861C109.398 8.70459 109.584 8.85693 109.705 9.03564C109.828 9.21143 109.889 9.42676 109.889 9.68164C109.889 10.1064 109.719 10.4478 109.379 10.7056C109.04 10.9604 108.599 11.0879 108.057 11.0879C107.676 11.0879 107.339 11.0205 107.046 10.8857C106.753 10.751 106.523 10.5635 106.356 10.3232C106.192 10.0801 106.11 9.81787 106.11 9.53662H106.923C106.938 9.80908 107.046 10.0259 107.248 10.187C107.453 10.3452 107.723 10.4243 108.057 10.4243C108.364 10.4243 108.61 10.3628 108.795 10.2397C108.982 10.1138 109.076 9.94678 109.076 9.73877Z" fill="white"/>
</svg>
