<svg width="45" height="21" viewBox="0 0 45 21" fill="none" xmlns="http://www.w3.org/2000/svg">
<path d="M30.4013 0.678741L30.2606 1.41187C30.0431 2.80124 30.1219 3.19874 30.7181 3.71436L31.2938 4.19062L30.6975 6.84937C30.3412 8.43562 29.9044 9.76499 29.6269 10.2019C29.3888 10.5787 29.1112 11.1337 29.0513 11.4319C28.9519 11.7881 28.6144 12.1462 28.0988 12.4631C27.6431 12.7219 26.7488 13.4156 26.115 13.9725C25.6088 14.4281 25.26 14.7075 25.0706 14.8275L24.4519 15.3169C24.2928 15.5528 24.1731 15.8131 24.0975 16.0875C24.0544 16.2881 24.0788 16.4212 24.1425 16.5187C24.2044 16.6125 24.3112 16.6781 24.4575 16.7194C24.6306 16.7599 24.8088 16.7745 24.9862 16.7625C25.3876 16.7351 25.7849 16.6647 26.1712 16.5525C26.3025 16.5169 26.4056 16.4831 26.4956 16.4531C26.6344 16.2825 26.955 15.96 27.5231 15.3994C29.0306 13.9125 29.6062 13.0987 29.0119 13.3181C28.7925 13.3969 28.8919 13.1981 29.2687 12.8006C30.0637 12.0262 30.5194 10.8562 31.4719 7.18686C32.2256 4.28999 32.2256 4.24874 32.7806 4.24874C33.0412 4.24874 33.7781 4.29374 33.7781 4.29374V0.678741H32.0869H30.4013ZM37.5994 6.61311C37.4794 6.61311 37.2806 6.79311 37.1625 6.99186C36.945 7.34811 37.2019 7.56561 40.4756 9.60936C42.42 10.8412 43.9875 11.8912 43.9481 11.9719C43.9087 12.03 42.3206 13.0631 40.4175 14.2537C36.9637 16.395 36.945 16.4156 37.2619 16.8525C37.6594 17.3681 37.2619 17.5462 41.745 14.7487L45 12.6656V11.0981L41.3681 8.85561C39.405 7.62561 37.6987 6.63374 37.5994 6.61311ZM7.44 6.83249C7.34062 6.83249 5.63438 7.84499 3.67125 9.05436L0 11.2969V12.8644L3.65062 15.1462C5.67563 16.395 7.38188 17.4281 7.46063 17.4281C7.53938 17.4281 7.69875 17.2481 7.85812 17.0306C8.09625 16.6537 7.89563 16.4944 4.54313 14.3719C1.35 12.3675 1.0125 12.09 1.33125 11.8725C1.53 11.7337 3.0375 10.8 4.665 9.78936C8.37562 7.50749 8.17688 7.66499 7.87875 7.18874C7.76063 6.99187 7.56 6.81374 7.44187 6.83249H7.44ZM23.7225 6.87562C23.175 6.87187 21.9975 7.70624 18.4725 10.5844C18.3206 10.9462 18.3075 11.1956 18.3769 11.3569C18.4219 11.4675 18.5044 11.5444 18.6188 11.6006C18.7313 11.6569 18.8775 11.6906 19.0387 11.7037C19.3594 11.7319 19.7381 11.6812 20.0437 11.6212L20.25 11.5744C20.3206 11.4797 20.4133 11.4037 20.52 11.3531C20.7375 11.2331 21.6506 10.4006 22.5638 9.50811C24.1706 7.88061 24.5475 7.14561 23.8931 6.90749C23.8394 6.88613 23.7822 6.87531 23.7244 6.87562H23.7225ZM27.84 8.00624C27.3581 8.01936 26.49 8.57811 25.0031 9.76499C24.2569 10.3706 23.7844 10.6969 23.5312 10.7644L22.5487 11.5406C22.1794 12.2156 22.125 12.6337 22.2225 12.8644C22.2469 12.9213 22.2823 12.9727 22.3267 13.0159C22.3712 13.059 22.4237 13.0929 22.4812 13.1156C22.6245 13.1722 22.7772 13.2008 22.9312 13.2C23.2993 13.1961 23.6651 13.1425 24.0188 13.0406C24.2031 12.9912 24.3851 12.9336 24.5644 12.8681L24.6187 12.8456L24.7181 12.7931C24.9056 12.5512 25.3369 12.0956 25.8769 11.5706C27.5831 9.92436 28.455 8.75436 28.2769 8.31749C28.1963 8.10562 28.0575 7.99874 27.84 8.00624ZM23.295 10.0312C23.1562 10.0462 22.845 10.2862 22.2844 10.7775C21.4744 11.4937 20.5913 11.9062 20.2856 11.7225C20.2146 11.7385 20.1433 11.7535 20.0719 11.7675C19.7606 11.8294 19.3725 11.88 19.0256 11.8519C18.8622 11.842 18.702 11.8019 18.5531 11.7337C18.4127 11.6695 18.3007 11.5562 18.2381 11.415C18.1688 11.2462 18.1688 11.0362 18.2475 10.7681L17.0287 11.7694L14.2706 14.0512V17.7506L23.3081 10.6312C23.3064 10.5533 23.3165 10.4755 23.3381 10.4006C23.4075 10.1494 23.4037 10.0219 23.295 10.0331V10.0312ZM27.1838 11.2294C27.0469 11.2294 26.8181 11.4225 26.4525 11.8106C25.9556 12.3412 25.1737 12.855 24.7594 12.96L24.6956 12.9937C24.6276 13.0218 24.5588 13.0481 24.4894 13.0725C24.3769 13.11 24.2306 13.155 24.0619 13.2C23.7244 13.2919 23.3044 13.3762 22.9294 13.3669C22.7526 13.3666 22.5775 13.3323 22.4138 13.2656C22.2594 13.202 22.1357 13.081 22.0688 12.9281C21.96 12.6675 22.0031 12.3019 22.2413 11.7825L14.2688 18.0619V20.3212H17.7712L25.2 14.4862C25.3931 14.2725 25.6838 13.98 26.0756 13.6144C27.1256 12.6412 27.3638 12.3056 27.3638 11.8087C27.3638 11.4225 27.3206 11.2275 27.1838 11.2275V11.2294ZM28.9519 14.8856L28.3162 15.5194C27.96 15.8569 27.3244 16.2731 26.8894 16.4512L26.8031 16.4887L26.7975 16.4981L26.7787 16.5169C26.7619 16.53 26.7544 16.5319 26.7413 16.5375C26.5676 16.6032 26.3912 16.6614 26.2125 16.7119C25.8152 16.8275 25.4066 16.8998 24.9937 16.9275C24.7986 16.94 24.6026 16.9229 24.4125 16.8769C24.2475 16.8405 24.1019 16.7443 24.0037 16.6069C23.9137 16.4681 23.8875 16.2825 23.9381 16.0537C23.9784 15.8909 24.0382 15.7335 24.1163 15.585L18.1219 20.3212H26.0944L27.0469 19.23C28.3556 17.7037 28.9519 16.6125 28.9519 15.6787V14.8856Z" fill="white"/>
</svg>
