<svg width="107" height="32" viewBox="0 0 107 32" fill="none" xmlns="http://www.w3.org/2000/svg">
<path d="M44.606 11.4932H41.1782V21H39.7793V11.4932H36.3589V10.3359H44.606V11.4932ZM48.041 19.0151L49.8867 13.0752H51.3369L48.1509 22.2231C47.6577 23.5415 46.874 24.2007 45.7998 24.2007L45.5435 24.1787L45.0381 24.0835V22.9849L45.4043 23.0142C45.8633 23.0142 46.2197 22.9214 46.4736 22.7358C46.7324 22.5503 46.9448 22.2109 47.1108 21.7178L47.4111 20.9121L44.584 13.0752H46.0635L48.041 19.0151ZM59.2471 17.1255C59.2471 18.3315 58.9712 19.3032 58.4194 20.0405C57.8677 20.7778 57.1206 21.1465 56.1782 21.1465C55.2163 21.1465 54.4595 20.8413 53.9077 20.231V24.0469H52.5527V13.0752H53.7905L53.8564 13.9541C54.4082 13.2705 55.1748 12.9287 56.1562 12.9287C57.1084 12.9287 57.8604 13.2876 58.4121 14.0054C58.9688 14.7231 59.2471 15.7217 59.2471 17.001V17.1255ZM57.8921 16.9717C57.8921 16.0781 57.7017 15.3726 57.3208 14.855C56.9399 14.3374 56.4175 14.0786 55.7534 14.0786C54.9331 14.0786 54.3179 14.4424 53.9077 15.1699V18.9565C54.313 19.6792 54.9331 20.0405 55.7681 20.0405C56.4175 20.0405 56.9326 19.7842 57.3135 19.2715C57.6992 18.7539 57.8921 17.9873 57.8921 16.9717ZM64.2642 21.1465C63.1899 21.1465 62.3159 20.7949 61.6421 20.0918C60.9683 19.3838 60.6313 18.439 60.6313 17.2573V17.0083C60.6313 16.2222 60.7803 15.5215 61.0781 14.9062C61.3809 14.2861 61.8008 13.8027 62.3379 13.4561C62.8799 13.1045 63.4658 12.9287 64.0957 12.9287C65.126 12.9287 65.9268 13.2681 66.498 13.9468C67.0693 14.6255 67.355 15.5972 67.355 16.8618V17.4258H61.9863C62.0059 18.207 62.2329 18.8394 62.6675 19.3228C63.1069 19.8013 63.6636 20.0405 64.3374 20.0405C64.8159 20.0405 65.2212 19.9429 65.5532 19.7476C65.8853 19.5522 66.1758 19.2935 66.4248 18.9712L67.2524 19.6157C66.5884 20.6362 65.5923 21.1465 64.2642 21.1465ZM64.0957 14.042C63.5488 14.042 63.0898 14.2422 62.7188 14.6426C62.3477 15.0381 62.1182 15.5947 62.0303 16.3125H66V16.21C65.9609 15.5215 65.7754 14.9893 65.4434 14.6133C65.1113 14.2324 64.6621 14.042 64.0957 14.042ZM72.2842 16.2466C71.0781 15.8999 70.1992 15.4751 69.6475 14.9722C69.1006 14.4644 68.8271 13.8394 68.8271 13.0972C68.8271 12.2573 69.1616 11.564 69.8306 11.0171C70.5044 10.4653 71.3784 10.1895 72.4526 10.1895C73.1851 10.1895 73.8369 10.3311 74.4082 10.6143C74.9844 10.8975 75.4287 11.2881 75.7412 11.7861C76.0586 12.2842 76.2173 12.8286 76.2173 13.4194H74.8037C74.8037 12.7749 74.5986 12.2695 74.1885 11.9033C73.7783 11.5322 73.1997 11.3467 72.4526 11.3467C71.7593 11.3467 71.2173 11.5005 70.8267 11.8081C70.4409 12.1108 70.248 12.5332 70.248 13.0752C70.248 13.5098 70.4312 13.8784 70.7974 14.1812C71.1685 14.479 71.7959 14.7524 72.6797 15.0015C73.5684 15.2505 74.2617 15.5264 74.7598 15.8291C75.2627 16.127 75.6338 16.4761 75.873 16.8765C76.1172 17.2769 76.2393 17.748 76.2393 18.29C76.2393 19.1543 75.9023 19.8477 75.2285 20.3701C74.5547 20.8877 73.6538 21.1465 72.5259 21.1465C71.7935 21.1465 71.1099 21.0073 70.4751 20.729C69.8403 20.4458 69.3496 20.0601 69.0029 19.5718C68.6611 19.0835 68.4902 18.5293 68.4902 17.9092H69.9038C69.9038 18.5537 70.1406 19.064 70.6143 19.4399C71.0928 19.811 71.73 19.9966 72.5259 19.9966C73.2681 19.9966 73.8369 19.8452 74.2324 19.5425C74.6279 19.2397 74.8257 18.8271 74.8257 18.3047C74.8257 17.7822 74.6426 17.3794 74.2764 17.0962C73.9102 16.8081 73.2461 16.5249 72.2842 16.2466ZM81.0146 20.0405C81.498 20.0405 81.9204 19.894 82.2817 19.6011C82.6431 19.3081 82.8433 18.9419 82.8823 18.5024H84.1641C84.1396 18.9565 83.9834 19.3887 83.6953 19.7988C83.4072 20.209 83.0215 20.5361 82.5381 20.7803C82.0596 21.0244 81.5518 21.1465 81.0146 21.1465C79.9355 21.1465 79.0762 20.7876 78.4365 20.0698C77.8018 19.3472 77.4844 18.3608 77.4844 17.1108V16.8838C77.4844 16.1123 77.626 15.4263 77.9092 14.8257C78.1924 14.2251 78.5977 13.7588 79.125 13.4268C79.6572 13.0947 80.2847 12.9287 81.0073 12.9287C81.896 12.9287 82.6333 13.1948 83.2192 13.7271C83.8101 14.2593 84.125 14.9502 84.1641 15.7998H82.8823C82.8433 15.2871 82.6479 14.8672 82.2964 14.54C81.9497 14.208 81.52 14.042 81.0073 14.042C80.3188 14.042 79.7842 14.291 79.4033 14.7891C79.0273 15.2822 78.8394 15.9976 78.8394 16.9351V17.1914C78.8394 18.1045 79.0273 18.8076 79.4033 19.3008C79.7793 19.7939 80.3164 20.0405 81.0146 20.0405ZM89.5181 14.291C89.313 14.2568 89.0908 14.2397 88.8516 14.2397C87.9629 14.2397 87.3599 14.6182 87.0425 15.375V21H85.6875V13.0752H87.0059L87.0278 13.9907C87.4722 13.2827 88.1021 12.9287 88.9175 12.9287C89.1812 12.9287 89.3813 12.9629 89.5181 13.0312V14.291ZM92.2427 21H90.8877V13.0752H92.2427V21ZM90.7778 10.9731C90.7778 10.7534 90.8438 10.5679 90.9756 10.4165C91.1123 10.2651 91.3125 10.1895 91.5762 10.1895C91.8398 10.1895 92.04 10.2651 92.1768 10.4165C92.3135 10.5679 92.3818 10.7534 92.3818 10.9731C92.3818 11.1929 92.3135 11.376 92.1768 11.5225C92.04 11.6689 91.8398 11.7422 91.5762 11.7422C91.3125 11.7422 91.1123 11.6689 90.9756 11.5225C90.8438 11.376 90.7778 11.1929 90.7778 10.9731ZM101.112 17.1255C101.112 18.3315 100.836 19.3032 100.285 20.0405C99.7329 20.7778 98.9858 21.1465 98.0435 21.1465C97.0815 21.1465 96.3247 20.8413 95.7729 20.231V24.0469H94.418V13.0752H95.6558L95.7217 13.9541C96.2734 13.2705 97.04 12.9287 98.0215 12.9287C98.9736 12.9287 99.7256 13.2876 100.277 14.0054C100.834 14.7231 101.112 15.7217 101.112 17.001V17.1255ZM99.7573 16.9717C99.7573 16.0781 99.5669 15.3726 99.186 14.855C98.8052 14.3374 98.2827 14.0786 97.6187 14.0786C96.7983 14.0786 96.1831 14.4424 95.7729 15.1699V18.9565C96.1782 19.6792 96.7983 20.0405 97.6333 20.0405C98.2827 20.0405 98.7979 19.7842 99.1787 19.2715C99.5645 18.7539 99.7573 17.9873 99.7573 16.9717ZM104.679 11.1562V13.0752H106.159V14.1226H104.679V19.0371C104.679 19.3545 104.745 19.5938 104.877 19.7549C105.009 19.9111 105.233 19.9893 105.551 19.9893C105.707 19.9893 105.922 19.96 106.195 19.9014V21C105.839 21.0977 105.492 21.1465 105.155 21.1465C104.55 21.1465 104.093 20.9634 103.786 20.5972C103.478 20.231 103.324 19.7109 103.324 19.0371V14.1226H101.881V13.0752H103.324V11.1562H104.679Z" fill="white"/>
<path d="M0 16V32H32V0H0V16ZM25.786 14.724C26.5531 14.9046 27.2503 15.3066 27.791 15.88C28.083 16.192 28.52 16.765 28.557 16.906C28.567 16.948 27.177 17.88 26.333 18.401C26.302 18.422 26.177 18.292 26.041 18.088C25.63 17.489 25.197 17.229 24.536 17.182C23.567 17.119 22.942 17.625 22.947 18.474C22.9419 18.6817 22.9883 18.8875 23.082 19.073C23.296 19.516 23.697 19.781 24.936 20.318C27.228 21.302 28.207 21.953 28.816 22.875C29.498 23.906 29.649 25.552 29.191 26.781C28.681 28.109 27.42 29.015 25.649 29.312C25.102 29.411 23.8 29.395 23.211 29.286C21.925 29.057 20.706 28.421 19.956 27.588C19.659 27.265 19.086 26.416 19.123 26.359C19.139 26.338 19.269 26.255 19.415 26.171L20.603 25.483L21.525 24.947L21.718 25.233C21.989 25.644 22.577 26.207 22.932 26.394C23.953 26.936 25.354 26.858 26.047 26.238C26.328 26.004 26.485 25.644 26.464 25.28C26.464 24.91 26.417 24.744 26.224 24.467C25.974 24.113 25.469 23.811 24.026 23.186C22.375 22.472 21.661 22.035 21.016 21.332C20.61 20.8693 20.3097 20.3236 20.136 19.733C20.016 19.28 19.985 18.144 20.079 17.691C20.418 16.092 21.626 14.983 23.36 14.655C23.923 14.546 25.235 14.587 25.787 14.723L25.786 14.724ZM18.276 16.063L18.286 17.37H14.119V29.209H11.171V17.37H7.01V16.089C7.01 15.375 7.026 14.782 7.046 14.766C7.062 14.745 9.593 14.735 12.666 14.74L18.26 14.756L18.276 16.063Z" fill="white"/>
</svg>
