<svg width="28" height="28" viewBox="0 0 28 28" fill="none" xmlns="http://www.w3.org/2000/svg">
<path d="M27.986 6.3658C27.9743 5.76516 27.9262 5.16579 27.8418 4.571C27.7412 4.04194 27.5703 3.52872 27.3336 3.045C26.8154 2.02202 25.9847 1.1908 24.962 0.672C24.4814 0.436398 23.9715 0.265961 23.4458 0.1652C22.8465 0.0790756 22.2424 0.0299825 21.637 0.0182C21.3808 0.00840002 21.049 0.00420003 20.895 0.00420003L7.1078 0C6.9538 0 6.622 0.00419999 6.3658 0.014C5.76516 0.0255732 5.16578 0.073729 4.571 0.1582C4.04194 0.258776 3.52872 0.429692 3.045 0.6664C2.02208 1.18468 1.19088 2.01539 0.672 3.038C0.436459 3.51864 0.266026 4.02853 0.1652 4.5542C0.0786846 5.15352 0.0291243 5.75759 0.0168001 6.363C0.00840012 6.6192 0.00280013 6.951 0.00280013 7.105L0 20.8922C0 21.0462 0.00419999 21.378 0.014 21.6342C0.0255732 22.2348 0.073729 22.8342 0.1582 23.429C0.258792 23.9581 0.429708 24.4713 0.6664 24.955C1.18468 25.9779 2.01539 26.8091 3.038 27.328C3.51865 27.5635 4.02854 27.7339 4.5542 27.8348C5.15354 27.9209 5.75762 27.97 6.363 27.9818C6.6192 27.9916 6.951 27.9958 7.105 27.9958L20.8922 27.9986C21.0462 27.9986 21.378 27.9944 21.6342 27.9846C22.2348 27.973 22.8342 27.9248 23.429 27.8404C23.958 27.7398 24.4713 27.5688 24.955 27.3322C25.9784 26.8142 26.8102 25.9834 27.3294 24.9606C27.565 24.48 27.7354 23.9701 27.8362 23.4444C27.9228 22.8451 27.9723 22.241 27.9846 21.6356C27.993 21.3794 27.9986 21.0476 27.9986 20.8936L28 7.1078C28 6.9538 27.9958 6.622 27.986 6.3658ZM14.3038 23.7398H14.2996C12.6331 23.7395 10.9933 23.3217 9.5298 22.5246L4.2378 23.912L5.6546 18.7418C4.55763 16.8382 4.11932 14.626 4.40762 12.4479C4.69592 10.2699 5.69472 8.24786 7.24916 6.69526C8.80361 5.14266 10.8269 4.14627 13.0052 3.86056C15.1836 3.57486 17.3953 4.0158 19.2976 5.11503C21.1998 6.21426 22.6863 7.91036 23.5265 9.94037C24.3667 11.9704 24.5137 14.2209 23.9447 16.3429C23.3758 18.465 22.1226 20.34 20.3795 21.6774C18.6364 23.0148 16.5008 23.7397 14.3038 23.7398Z" fill="white"/>
<path d="M14.3085 5.46183C12.826 5.4614 11.3705 5.85814 10.0933 6.6108C8.8161 7.36345 7.76386 8.44453 7.046 9.74162C6.32814 11.0387 5.97089 12.5044 6.0114 13.9864C6.05191 15.4683 6.48869 16.9123 7.27633 18.1682L7.47373 18.4818L6.63513 21.5422L9.77533 20.719L10.0777 20.8982C11.3561 21.6553 12.8144 22.0547 14.3001 22.0546H14.3043C16.5049 22.055 18.6154 21.1812 20.1717 19.6255C21.7279 18.0697 22.6025 15.9595 22.6028 13.7589C22.6032 11.5584 21.7294 9.44786 20.1737 7.89159C18.6179 6.33532 16.5077 5.46081 14.3071 5.46043L14.3085 5.46183ZM19.1861 17.3198C19.0026 17.6229 18.7584 17.8847 18.4688 18.0888C18.1792 18.2928 17.8505 18.4348 17.5033 18.5056C16.9792 18.5955 16.4414 18.562 15.9325 18.4076C15.4499 18.2573 14.9756 18.0815 14.5115 17.8812C12.7891 17.0169 11.3211 15.7196 10.2513 14.1166C9.66777 13.3746 9.31355 12.4783 9.23213 11.5378C9.2254 11.1496 9.29961 10.7643 9.45002 10.4063C9.60042 10.0484 9.82374 9.72571 10.1057 9.45883C10.1891 9.36376 10.2912 9.28696 10.4056 9.23323C10.52 9.1795 10.6443 9.15002 10.7707 9.14663C10.9359 9.14663 11.1025 9.14663 11.2481 9.15503C11.4021 9.16203 11.6065 9.09623 11.8081 9.58343C12.0181 10.0818 12.5165 11.3096 12.5781 11.4342C12.6177 11.4996 12.6403 11.5737 12.644 11.65C12.6476 11.7262 12.6322 11.8022 12.5991 11.871C12.5363 12.0208 12.4524 12.1608 12.3499 12.2868C12.2239 12.4324 12.0881 12.6116 11.9761 12.7236C11.8501 12.8482 11.7213 12.9826 11.8655 13.2318C12.2401 13.8731 12.7076 14.4553 13.2529 14.9594C13.8446 15.4855 14.5235 15.9043 15.2591 16.197C15.5083 16.323 15.6539 16.3006 15.7995 16.134C15.9451 15.9674 16.4225 15.406 16.5891 15.1568C16.7557 14.9076 16.9209 14.9496 17.1491 15.0322C17.3773 15.1148 18.6051 15.7182 18.8543 15.8442C19.1035 15.9702 19.2701 16.0304 19.3317 16.134C19.4 16.535 19.3494 16.9473 19.1861 17.3198Z" fill="white"/>
</svg>
